<svg xmlns:inkscape="http://www.inkscape.org/namespaces/inkscape" xmlns:sodipodi="http://sodipodi.sourceforge.net/DTD/sodipodi-0.dtd" xmlns="http://www.w3.org/2000/svg" xmlns:svg="http://www.w3.org/2000/svg" version="1.1" id="svg1" viewBox="0 0 708.84192 716.65826" sodipodi:docname="5.1_unor.svg" inkscape:version="1.3 (0e150ed6c4, 2023-07-21)">
  <defs id="defs1"/>
  <sodipodi:namedview id="namedview1" pagecolor="#44475a" bordercolor="#666666" borderopacity="1.0" inkscape:showpageshadow="2" inkscape:pageopacity="0.0" inkscape:pagecheckerboard="0" inkscape:deskcolor="#d1d1d1" inkscape:zoom="0.38694453" inkscape:cx="478.10471" inkscape:cy="-27.135672" inkscape:window-width="1920" inkscape:window-height="1120" inkscape:window-x="-11" inkscape:window-y="-11" inkscape:window-maximized="1" inkscape:current-layer="g1">
    <inkscape:page x="0" y="0" inkscape:label="1" id="page1" width="708.84192" height="716.65826" margin="0" bleed="0"/>
  </sodipodi:namedview>
  <g id="g1" inkscape:groupmode="layer" inkscape:label="1" transform="translate(-5.6022844,-1.5965719)">
    <path id="path1" d="m 448.301,3560.8 c 57.597,-144.3 127.301,-277.8 216.097,-414" class="stroke-background" style="display:inline;fill:none;stroke:#44475a;;stroke-width:344.95;stroke-linecap:butt;stroke-linejoin:miter;stroke-miterlimit:10;stroke-dasharray:none;stroke-opacity:1" transform="matrix(0.13333333,0,0,-0.13333333,0,720)"/>
    <path id="path2" d="m 448.301,3560.8 c 57.597,-144.3 127.301,-277.8 216.097,-414" class="stroke-orange" style="fill:none;stroke:#ffb86c;stroke-width:172.478;stroke-linecap:round;stroke-linejoin:miter;stroke-miterlimit:10;stroke-dasharray:none;stroke-opacity:1" transform="matrix(0.13333333,0,0,-0.13333333,0,720)"/>
    <path id="path3" d="m 4905.2,3116.1 c -102.5,104.3 -216.8,193.4 -354.3,276" class="stroke-background" style="display:inline;fill:none;stroke:#44475a;;stroke-width:344.95;stroke-linecap:butt;stroke-linejoin:miter;stroke-miterlimit:10;stroke-dasharray:none;stroke-opacity:1" transform="matrix(0.13333333,0,0,-0.13333333,0,720)"/>
    <path id="path4" d="m 4905.2,3116.1 c -102.5,104.3 -216.8,193.4 -354.3,276" class="stroke-orange" style="fill:none;stroke:#ffb86c;stroke-width:172.478;stroke-linecap:round;stroke-linejoin:miter;stroke-miterlimit:10;stroke-dasharray:none;stroke-opacity:1" transform="matrix(0.13333333,0,0,-0.13333333,0,720)"/>
    <path id="path5" d="m 4564,3384.2 c -137.5,82.7 -274.8,149.1 -425.6,205.9" class="stroke-background" style="display:inline;fill:none;stroke:#44475a;;stroke-width:344.95;stroke-linecap:butt;stroke-linejoin:miter;stroke-miterlimit:10;stroke-dasharray:none;stroke-opacity:1" transform="matrix(0.13333333,0,0,-0.13333333,0,720)"/>
    <path id="path6" d="m 4564,3384.2 c -137.5,82.7 -274.8,149.1 -425.6,205.9" class="stroke-orange" style="fill:none;stroke:#ffb86c;stroke-width:172.478;stroke-linecap:round;stroke-linejoin:miter;stroke-miterlimit:10;stroke-dasharray:none;stroke-opacity:1" transform="matrix(0.13333333,0,0,-0.13333333,0,720)"/>
    <path id="path7" d="m 349.199,3961.3 c 13.199,-136.4 47,-270 104.602,-414.3" class="stroke-background" style="display:inline;fill:none;stroke:#44475a;;stroke-width:344.95;stroke-linecap:butt;stroke-linejoin:miter;stroke-miterlimit:10;stroke-dasharray:none;stroke-opacity:1" transform="matrix(0.13333333,0,0,-0.13333333,0,720)"/>
    <path id="path8" d="m 349.199,3961.3 c 13.199,-136.4 47,-270 104.602,-414.3" class="stroke-orange" style="fill:none;stroke:#ffb86c;stroke-width:172.478;stroke-linecap:round;stroke-linejoin:miter;stroke-miterlimit:10;stroke-dasharray:none;stroke-opacity:1" transform="matrix(0.13333333,0,0,-0.13333333,0,720)"/>
    <path id="path9" d="m 1225.8,1053.9 c 157.7,-2.4 308.5,12 467.6,44.7" class="stroke-background" style="display:inline;fill:none;stroke:#44475a;;stroke-width:344.95;stroke-linecap:butt;stroke-linejoin:miter;stroke-miterlimit:10;stroke-dasharray:none;stroke-opacity:1" transform="matrix(0.13333333,0,0,-0.13333333,0,720)"/>
    <path id="path10" d="m 1225.8,1053.9 c 157.7,-2.4 308.5,12 467.6,44.7" class="stroke-orange" style="fill:none;stroke:#ffb86c;stroke-width:172.478;stroke-linecap:round;stroke-linejoin:miter;stroke-miterlimit:10;stroke-dasharray:none;stroke-opacity:1" transform="matrix(0.13333333,0,0,-0.13333333,0,720)"/>
    <path id="path11" d="m 656,3159.8 c 88.801,-136.2 178.5,-256.4 278.102,-372.7" class="stroke-background" style="display:inline;fill:none;stroke:#44475a;;stroke-width:344.95;stroke-linecap:butt;stroke-linejoin:miter;stroke-miterlimit:10;stroke-dasharray:none;stroke-opacity:1" transform="matrix(0.13333333,0,0,-0.13333333,0,720)"/>
    <path id="path12" d="m 656,3159.8 c 88.801,-136.2 178.5,-256.4 278.102,-372.7" class="stroke-orange" style="fill:none;stroke:#ffb86c;stroke-width:172.478;stroke-linecap:round;stroke-linejoin:miter;stroke-miterlimit:10;stroke-dasharray:none;stroke-opacity:1" transform="matrix(0.13333333,0,0,-0.13333333,0,720)"/>
    <path id="path13" d="m 3805.3,939.801 c 47,149.999 76.6,298.499 91.8,460.299" class="stroke-background" style="display:inline;fill:none;stroke:#44475a;;stroke-width:344.95;stroke-linecap:butt;stroke-linejoin:miter;stroke-miterlimit:10;stroke-dasharray:none;stroke-opacity:1" transform="matrix(0.13333333,0,0,-0.13333333,0,720)"/>
    <path id="path14" d="m 3805.3,939.801 c 47,149.999 76.6,298.499 91.8,460.299" class="stroke-orange" style="fill:none;stroke:#ffb86c;stroke-width:172.478;stroke-linecap:round;stroke-linejoin:miter;stroke-miterlimit:10;stroke-dasharray:none;stroke-opacity:1" transform="matrix(0.13333333,0,0,-0.13333333,0,720)"/>
    <path id="path15" d="m 807.102,1122.3 c 136.097,-44.1 275.998,-66.2 433.698,-68.6" class="stroke-background" style="display:inline;fill:none;stroke:#44475a;;stroke-width:344.95;stroke-linecap:butt;stroke-linejoin:miter;stroke-miterlimit:10;stroke-dasharray:none;stroke-opacity:1" transform="matrix(0.13333333,0,0,-0.13333333,0,720)"/>
    <path id="path16" d="m 807.102,1122.3 c 136.097,-44.1 275.998,-66.2 433.698,-68.6" class="stroke-orange" style="fill:none;stroke:#ffb86c;stroke-width:172.478;stroke-linecap:round;stroke-linejoin:miter;stroke-miterlimit:10;stroke-dasharray:none;stroke-opacity:1" transform="matrix(0.13333333,0,0,-0.13333333,0,720)"/>
    <path id="path17" d="m 2850.9,5115.4 c -136.1,-60.5 -260.3,-137.1 -385,-237.4" class="stroke-background" style="display:inline;fill:none;stroke:#44475a;;stroke-width:344.95;stroke-linecap:butt;stroke-linejoin:miter;stroke-miterlimit:10;stroke-dasharray:none;stroke-opacity:1" transform="matrix(0.13333333,0,0,-0.13333333,0,720)"/>
    <path id="path18" d="m 2850.9,5115.4 c -136.1,-60.5 -260.3,-137.1 -385,-237.4" class="stroke-orange" style="fill:none;stroke:#ffb86c;stroke-width:172.478;stroke-linecap:round;stroke-linejoin:miter;stroke-miterlimit:10;stroke-dasharray:none;stroke-opacity:1" transform="matrix(0.13333333,0,0,-0.13333333,0,720)"/>
    <path id="path19" d="M 2477.8,4887.6 C 2353.1,4787.3 2244.6,4681.4 2141.4,4559.4" class="stroke-background" style="display:inline;fill:none;stroke:#44475a;;stroke-width:344.95;stroke-linecap:butt;stroke-linejoin:miter;stroke-miterlimit:10;stroke-dasharray:none;stroke-opacity:1" transform="matrix(0.13333333,0,0,-0.13333333,0,720)"/>
    <path id="path20" d="M 2477.8,4887.6 C 2353.1,4787.3 2244.6,4681.4 2141.4,4559.4" class="stroke-orange" style="fill:none;stroke:#ffb86c;stroke-width:172.478;stroke-linecap:round;stroke-linejoin:miter;stroke-miterlimit:10;stroke-dasharray:none;stroke-opacity:1" transform="matrix(0.13333333,0,0,-0.13333333,0,720)"/>
    <path id="path21" d="m 3623.2,560 c 79.5,117 139.6,244.102 186.6,394.102" class="stroke-background" style="display:inline;fill:none;stroke:#44475a;;stroke-width:344.95;stroke-linecap:butt;stroke-linejoin:miter;stroke-miterlimit:10;stroke-dasharray:none;stroke-opacity:1" transform="matrix(0.13333333,0,0,-0.13333333,0,720)"/>
    <path id="path22" d="m 3623.2,560 c 79.5,117 139.6,244.102 186.6,394.102" class="stroke-orange" style="fill:none;stroke:#ffb86c;stroke-width:172.478;stroke-linecap:round;stroke-linejoin:miter;stroke-miterlimit:10;stroke-dasharray:none;stroke-opacity:1" transform="matrix(0.13333333,0,0,-0.13333333,0,720)"/>
    <path id="path23" d="m 5123.2,2800 c -51.8,116.5 -125.3,221.7 -227.8,326" class="stroke-background" style="display:inline;fill:none;stroke:#44475a;;stroke-width:344.95;stroke-linecap:butt;stroke-linejoin:miter;stroke-miterlimit:10;stroke-dasharray:none;stroke-opacity:1" transform="matrix(0.13333333,0,0,-0.13333333,0,720)"/>
    <path id="path24" d="m 5123.2,2800 c -51.8,116.5 -125.3,221.7 -227.8,326" class="stroke-orange" style="fill:none;stroke:#ffb86c;stroke-width:172.478;stroke-linecap:round;stroke-linejoin:miter;stroke-miterlimit:10;stroke-dasharray:none;stroke-opacity:1" transform="matrix(0.13333333,0,0,-0.13333333,0,720)"/>
    <path id="path25" d="m 4152.8,3584.7 c -150.7,56.8 -289.8,100.9 -431,136.8" class="stroke-background" style="display:inline;fill:none;stroke:#44475a;;stroke-width:344.95;stroke-linecap:butt;stroke-linejoin:miter;stroke-miterlimit:10;stroke-dasharray:none;stroke-opacity:1" transform="matrix(0.13333333,0,0,-0.13333333,0,720)"/>
    <path id="path26" d="m 4152.8,3584.7 c -150.7,56.8 -289.8,100.9 -431,136.8" class="stroke-orange" style="fill:none;stroke:#ffb86c;stroke-width:172.478;stroke-linecap:round;stroke-linejoin:miter;stroke-miterlimit:10;stroke-dasharray:none;stroke-opacity:1" transform="matrix(0.13333333,0,0,-0.13333333,0,720)"/>
    <path id="path27" d="m 1678.2,1095.5 c 159.1,32.7 302.7,73 445.4,125.1" class="stroke-background" style="display:inline;fill:none;stroke:#44475a;;stroke-width:344.95;stroke-linecap:butt;stroke-linejoin:miter;stroke-miterlimit:10;stroke-dasharray:none;stroke-opacity:1" transform="matrix(0.13333333,0,0,-0.13333333,0,720)"/>
    <path id="path28" d="m 1678.2,1095.5 c 159.1,32.7 302.7,73 445.4,125.1" class="stroke-orange" style="fill:none;stroke:#ffb86c;stroke-width:172.478;stroke-linecap:round;stroke-linejoin:miter;stroke-miterlimit:10;stroke-dasharray:none;stroke-opacity:1" transform="matrix(0.13333333,0,0,-0.13333333,0,720)"/>
    <path id="path29" d="m 3895.7,1384.7 c 15.2,161.8 19.6,311.3 13.8,463.3" class="stroke-background" style="display:inline;fill:none;stroke:#44475a;;stroke-width:344.95;stroke-linecap:butt;stroke-linejoin:miter;stroke-miterlimit:10;stroke-dasharray:none;stroke-opacity:1" transform="matrix(0.13333333,0,0,-0.13333333,0,720)"/>
    <path id="path30" d="m 3895.7,1384.7 c 15.2,161.8 19.6,311.3 13.8,463.3" class="stroke-orange" style="fill:none;stroke:#ffb86c;stroke-width:172.478;stroke-linecap:round;stroke-linejoin:miter;stroke-miterlimit:10;stroke-dasharray:none;stroke-opacity:1" transform="matrix(0.13333333,0,0,-0.13333333,0,720)"/>
    <path id="path31" d="m 383.699,4316.7 c -35.801,-113.2 -46.5,-232 -33.301,-368.4" class="stroke-background" style="display:inline;fill:none;stroke:#44475a;;stroke-width:344.95;stroke-linecap:butt;stroke-linejoin:miter;stroke-miterlimit:10;stroke-dasharray:none;stroke-opacity:1" transform="matrix(0.13333333,0,0,-0.13333333,0,720)"/>
    <path id="path32" d="m 383.699,4316.7 c -35.801,-113.2 -46.5,-232 -33.301,-368.4" class="stroke-orange" style="fill:none;stroke:#ffb86c;stroke-width:172.478;stroke-linecap:round;stroke-linejoin:miter;stroke-miterlimit:10;stroke-dasharray:none;stroke-opacity:1" transform="matrix(0.13333333,0,0,-0.13333333,0,720)"/>
    <path id="path33" d="m 3236.7,5213.7 c -134,-10 -262.6,-43.6 -398.8,-104.1" class="stroke-background" style="display:inline;fill:none;stroke:#44475a;;stroke-width:344.95;stroke-linecap:butt;stroke-linejoin:miter;stroke-miterlimit:10;stroke-dasharray:none;stroke-opacity:1" transform="matrix(0.13333333,0,0,-0.13333333,0,720)"/>
    <path id="path34" d="m 3236.7,5213.7 c -134,-10 -262.6,-43.6 -398.8,-104.1" class="stroke-orange" style="fill:none;stroke:#ffb86c;stroke-width:172.478;stroke-linecap:round;stroke-linejoin:miter;stroke-miterlimit:10;stroke-dasharray:none;stroke-opacity:1" transform="matrix(0.13333333,0,0,-0.13333333,0,720)"/>
    <path id="path35" d="m 475.199,1307.1 c 97.5,-84 208.801,-145 344.903,-189" class="stroke-background" style="display:inline;fill:none;stroke:#44475a;;stroke-width:344.95;stroke-linecap:butt;stroke-linejoin:miter;stroke-miterlimit:10;stroke-dasharray:none;stroke-opacity:1" transform="matrix(0.13333333,0,0,-0.13333333,0,720)"/>
    <path id="path36" d="m 475.199,1307.1 c 97.5,-84 208.801,-145 344.903,-189" class="stroke-orange" style="fill:none;stroke:#ffb86c;stroke-width:172.478;stroke-linecap:round;stroke-linejoin:miter;stroke-miterlimit:10;stroke-dasharray:none;stroke-opacity:1" transform="matrix(0.13333333,0,0,-0.13333333,0,720)"/>
    <path id="path37" d="M 2151.2,4571 C 2048,4449 1960.1,4332.7 1878.8,4210.7" class="stroke-background" style="display:inline;fill:none;stroke:#44475a;;stroke-width:344.95;stroke-linecap:butt;stroke-linejoin:miter;stroke-miterlimit:10;stroke-dasharray:none;stroke-opacity:1" transform="matrix(0.13333333,0,0,-0.13333333,0,720)"/>
    <path id="path38" d="M 2151.2,4571 C 2048,4449 1960.1,4332.7 1878.8,4210.7" class="stroke-orange" style="fill:none;stroke:#ffb86c;stroke-width:172.478;stroke-linecap:round;stroke-linejoin:miter;stroke-miterlimit:10;stroke-dasharray:none;stroke-opacity:1" transform="matrix(0.13333333,0,0,-0.13333333,0,720)"/>
    <path id="path39" d="m 3357.9,297.898 c 105.4,68.204 193.5,156.301 272.9,273.301" class="stroke-background" style="display:inline;fill:none;stroke:#44475a;;stroke-width:344.95;stroke-linecap:butt;stroke-linejoin:miter;stroke-miterlimit:10;stroke-dasharray:none;stroke-opacity:1" transform="matrix(0.13333333,0,0,-0.13333333,0,720)"/>
    <path id="path40" d="m 3357.9,297.898 c 105.4,68.204 193.5,156.301 272.9,273.301" class="stroke-orange" style="fill:none;stroke:#ffb86c;stroke-width:172.478;stroke-linecap:round;stroke-linejoin:miter;stroke-miterlimit:10;stroke-dasharray:none;stroke-opacity:1" transform="matrix(0.13333333,0,0,-0.13333333,0,720)"/>
    <path id="path41" d="M 924.602,2798.1 C 1024.2,2681.8 1113.1,2580.5 1200.3,2484" class="stroke-background" style="display:inline;fill:none;stroke:#44475a;;stroke-width:344.95;stroke-linecap:butt;stroke-linejoin:miter;stroke-miterlimit:10;stroke-dasharray:none;stroke-opacity:1" transform="matrix(0.13333333,0,0,-0.13333333,0,720)"/>
    <path id="path42" d="M 924.602,2798.1 C 1024.2,2681.8 1113.1,2580.5 1200.3,2484" class="stroke-orange" style="fill:none;stroke:#ffb86c;stroke-width:172.478;stroke-linecap:round;stroke-linejoin:miter;stroke-miterlimit:10;stroke-dasharray:none;stroke-opacity:1" transform="matrix(0.13333333,0,0,-0.13333333,0,720)"/>
    <path id="path43" d="m 5184.7,2466.4 c 6.8,116.9 -14.6,228.1 -66.4,344.7" class="stroke-background" style="display:inline;fill:none;stroke:#44475a;;stroke-width:344.95;stroke-linecap:butt;stroke-linejoin:miter;stroke-miterlimit:10;stroke-dasharray:none;stroke-opacity:1" transform="matrix(0.13333333,0,0,-0.13333333,0,720)"/>
    <path id="path44" d="m 5184.7,2466.4 c 6.8,116.9 -14.6,228.1 -66.4,344.7" class="stroke-orange" style="fill:none;stroke:#ffb86c;stroke-width:172.478;stroke-linecap:round;stroke-linejoin:miter;stroke-miterlimit:10;stroke-dasharray:none;stroke-opacity:1" transform="matrix(0.13333333,0,0,-0.13333333,0,720)"/>
    <path id="path45" d="m 2110,1215.6 c 142.7,52 268.1,99.9 388.8,148.5" class="stroke-background" style="display:inline;fill:none;stroke:#44475a;;stroke-width:344.95;stroke-linecap:butt;stroke-linejoin:miter;stroke-miterlimit:10;stroke-dasharray:none;stroke-opacity:1" transform="matrix(0.13333333,0,0,-0.13333333,0,720)"/>
    <path id="path46" d="m 2110,1215.6 c 142.7,52 268.1,99.9 388.8,148.5" class="stroke-orange" style="fill:none;stroke:#ffb86c;stroke-width:172.478;stroke-linecap:round;stroke-linejoin:miter;stroke-miterlimit:10;stroke-dasharray:none;stroke-opacity:1" transform="matrix(0.13333333,0,0,-0.13333333,0,720)"/>
    <path id="path47" d="m 3910.1,1833.6 c -5.9,152 -11.4,286.8 -17.3,417.7" class="stroke-background" style="display:inline;fill:none;stroke:#44475a;;stroke-width:344.95;stroke-linecap:butt;stroke-linejoin:miter;stroke-miterlimit:10;stroke-dasharray:none;stroke-opacity:1" transform="matrix(0.13333333,0,0,-0.13333333,0,720)"/>
    <path id="path48" d="m 3910.1,1833.6 c -5.9,152 -11.4,286.8 -17.3,417.7" class="stroke-orange" style="fill:none;stroke:#ffb86c;stroke-width:172.478;stroke-linecap:round;stroke-linejoin:miter;stroke-miterlimit:10;stroke-dasharray:none;stroke-opacity:1" transform="matrix(0.13333333,0,0,-0.13333333,0,720)"/>
    <path id="path49" d="m 3595.7,5163 c -117.9,43.7 -237.8,59.8 -371.8,49.8" class="stroke-background" style="display:inline;fill:none;stroke:#44475a;;stroke-width:344.95;stroke-linecap:butt;stroke-linejoin:miter;stroke-miterlimit:10;stroke-dasharray:none;stroke-opacity:1" transform="matrix(0.13333333,0,0,-0.13333333,0,720)"/>
    <path id="path50" d="m 3595.7,5163 c -117.9,43.7 -237.8,59.8 -371.8,49.8" class="stroke-orange" style="fill:none;stroke:#ffb86c;stroke-width:172.478;stroke-linecap:round;stroke-linejoin:miter;stroke-miterlimit:10;stroke-dasharray:none;stroke-opacity:1" transform="matrix(0.13333333,0,0,-0.13333333,0,720)"/>
    <path id="path51" d="m 3735.2,3718.1 c -141.2,35.9 -264.5,67.8 -382.1,98.8" class="stroke-background" style="display:inline;fill:none;stroke:#44475a;;stroke-width:344.95;stroke-linecap:butt;stroke-linejoin:miter;stroke-miterlimit:10;stroke-dasharray:none;stroke-opacity:1" transform="matrix(0.13333333,0,0,-0.13333333,0,720)"/>
    <path id="path52" d="m 3735.2,3718.1 c -141.2,35.9 -264.5,67.8 -382.1,98.8" class="stroke-orange" style="fill:none;stroke:#ffb86c;stroke-width:172.478;stroke-linecap:round;stroke-linejoin:miter;stroke-miterlimit:10;stroke-dasharray:none;stroke-opacity:1" transform="matrix(0.13333333,0,0,-0.13333333,0,720)"/>
    <path id="path53" d="m 554.801,4588.3 c -82.403,-78.1 -138.699,-169.1 -174.5,-282.4" class="stroke-background" style="display:inline;fill:none;stroke:#44475a;;stroke-width:344.95;stroke-linecap:butt;stroke-linejoin:miter;stroke-miterlimit:10;stroke-dasharray:none;stroke-opacity:1" transform="matrix(0.13333333,0,0,-0.13333333,0,720)"/>
    <path id="path54" d="m 554.801,4588.3 c -82.403,-78.1 -138.699,-169.1 -174.5,-282.4" class="stroke-orange" style="fill:none;stroke:#ffb86c;stroke-width:172.478;stroke-linecap:round;stroke-linejoin:miter;stroke-miterlimit:10;stroke-dasharray:none;stroke-opacity:1" transform="matrix(0.13333333,0,0,-0.13333333,0,720)"/>
    <path id="path55" d="M 270.699,1594.4 C 318.102,1478.3 387.102,1383.1 484.5,1299.1" class="stroke-background" style="display:inline;fill:none;stroke:#44475a;;stroke-width:344.95;stroke-linecap:butt;stroke-linejoin:miter;stroke-miterlimit:10;stroke-dasharray:none;stroke-opacity:1" transform="matrix(0.13333333,0,0,-0.13333333,0,720)"/>
    <path id="path56" d="M 270.699,1594.4 C 318.102,1478.3 387.102,1383.1 484.5,1299.1" class="stroke-orange" style="fill:none;stroke:#ffb86c;stroke-width:172.478;stroke-linecap:round;stroke-linejoin:miter;stroke-miterlimit:10;stroke-dasharray:none;stroke-opacity:1" transform="matrix(0.13333333,0,0,-0.13333333,0,720)"/>
    <path id="path57" d="m 1886.5,4222.3 c -81.3,-122 -155.1,-230.2 -228.8,-335.4" class="stroke-background" style="display:inline;fill:none;stroke:#44475a;;stroke-width:344.95;stroke-linecap:butt;stroke-linejoin:miter;stroke-miterlimit:10;stroke-dasharray:none;stroke-opacity:1" transform="matrix(0.13333333,0,0,-0.13333333,0,720)"/>
    <path id="path58" d="m 1886.5,4222.3 c -81.3,-122 -155.1,-230.2 -228.8,-335.4" class="stroke-orange" style="fill:none;stroke:#ffb86c;stroke-width:172.478;stroke-linecap:round;stroke-linejoin:miter;stroke-miterlimit:10;stroke-dasharray:none;stroke-opacity:1" transform="matrix(0.13333333,0,0,-0.13333333,0,720)"/>
    <path id="path59" d="m 3033.7,187.602 c 120.9,10.898 228.7,48.597 334.2,116.796" class="stroke-background" style="display:inline;fill:none;stroke:#44475a;;stroke-width:344.95;stroke-linecap:butt;stroke-linejoin:miter;stroke-miterlimit:10;stroke-dasharray:none;stroke-opacity:1" transform="matrix(0.13333333,0,0,-0.13333333,0,720)"/>
    <path id="path60" d="m 3033.7,187.602 c 120.9,10.898 228.7,48.597 334.2,116.796" class="stroke-orange" style="fill:none;stroke:#ffb86c;stroke-width:172.478;stroke-linecap:round;stroke-linejoin:miter;stroke-miterlimit:10;stroke-dasharray:none;stroke-opacity:1" transform="matrix(0.13333333,0,0,-0.13333333,0,720)"/>
    <path id="path61" d="m 1192,2493.2 c 87.2,-96.5 157.7,-186.8 218.3,-280" class="stroke-background" style="display:inline;fill:none;stroke:#44475a;;stroke-width:344.95;stroke-linecap:butt;stroke-linejoin:miter;stroke-miterlimit:10;stroke-dasharray:none;stroke-opacity:1" transform="matrix(0.13333333,0,0,-0.13333333,0,720)"/>
    <path id="path62" d="m 1192,2493.2 c 87.2,-96.5 157.7,-186.8 218.3,-280" class="stroke-orange" style="fill:none;stroke:#ffb86c;stroke-width:172.478;stroke-linecap:round;stroke-linejoin:miter;stroke-miterlimit:10;stroke-dasharray:none;stroke-opacity:1" transform="matrix(0.13333333,0,0,-0.13333333,0,720)"/>
    <path id="path63" d="m 5079.1,2149.4 c 65.2,105.3 99.5,211.1 106.3,328.1" class="stroke-background" style="display:inline;fill:none;stroke:#44475a;;stroke-width:344.95;stroke-linecap:butt;stroke-linejoin:miter;stroke-miterlimit:10;stroke-dasharray:none;stroke-opacity:1" transform="matrix(0.13333333,0,0,-0.13333333,0,720)"/>
    <path id="path64" d="m 5079.1,2149.4 c 65.2,105.3 99.5,211.1 106.3,328.1" class="stroke-orange" style="fill:none;stroke:#ffb86c;stroke-width:172.478;stroke-linecap:round;stroke-linejoin:miter;stroke-miterlimit:10;stroke-dasharray:none;stroke-opacity:1" transform="matrix(0.13333333,0,0,-0.13333333,0,720)"/>
    <path id="path65" d="m 3891,4964.6 c -89.8,93.5 -188.7,158.9 -306.5,202.6" class="stroke-background" style="display:inline;fill:none;stroke:#44475a;;stroke-width:344.95;stroke-linecap:butt;stroke-linejoin:miter;stroke-miterlimit:10;stroke-dasharray:none;stroke-opacity:1" transform="matrix(0.13333333,0,0,-0.13333333,0,720)"/>
    <path id="path66" d="m 3891,4964.6 c -89.8,93.5 -188.7,158.9 -306.5,202.6" class="stroke-orange" style="fill:none;stroke:#ffb86c;stroke-width:172.478;stroke-linecap:round;stroke-linejoin:miter;stroke-miterlimit:10;stroke-dasharray:none;stroke-opacity:1" transform="matrix(0.13333333,0,0,-0.13333333,0,720)"/>
    <path id="path67" d="m 2487.3,1359.5 c 120.8,48.6 231.9,84.2 344.4,110.4" class="stroke-background" style="display:inline;fill:none;stroke:#44475a;;stroke-width:344.95;stroke-linecap:butt;stroke-linejoin:miter;stroke-miterlimit:10;stroke-dasharray:none;stroke-opacity:1" transform="matrix(0.13333333,0,0,-0.13333333,0,720)"/>
    <path id="path68" d="m 2487.3,1359.5 c 120.8,48.6 231.9,84.2 344.4,110.4" class="stroke-orange" style="fill:none;stroke:#ffb86c;stroke-width:172.478;stroke-linecap:round;stroke-linejoin:miter;stroke-miterlimit:10;stroke-dasharray:none;stroke-opacity:1" transform="matrix(0.13333333,0,0,-0.13333333,0,720)"/>
    <path id="path69" d="m 3893.3,2238.8 c -5.8,130.9 -1.3,249.6 13.9,367.8" class="stroke-background" style="display:inline;fill:none;stroke:#44475a;;stroke-width:344.95;stroke-linecap:butt;stroke-linejoin:miter;stroke-miterlimit:10;stroke-dasharray:none;stroke-opacity:1" transform="matrix(0.13333333,0,0,-0.13333333,0,720)"/>
    <path id="path70" d="m 3893.3,2238.8 c -5.8,130.9 -1.3,249.6 13.9,367.8" class="stroke-orange" style="fill:none;stroke:#ffb86c;stroke-width:172.478;stroke-linecap:round;stroke-linejoin:miter;stroke-miterlimit:10;stroke-dasharray:none;stroke-opacity:1" transform="matrix(0.13333333,0,0,-0.13333333,0,720)"/>
    <path id="path71" d="m 3364.3,3814 c -117.7,31 -221,67.9 -320.1,114.5" class="stroke-background" style="display:inline;fill:none;stroke:#44475a;;stroke-width:344.95;stroke-linecap:butt;stroke-linejoin:miter;stroke-miterlimit:10;stroke-dasharray:none;stroke-opacity:1" transform="matrix(0.13333333,0,0,-0.13333333,0,720)"/>
    <path id="path72" d="m 3364.3,3814 c -117.7,31 -221,67.9 -320.1,114.5" class="stroke-orange" style="fill:none;stroke:#ffb86c;stroke-width:172.478;stroke-linecap:round;stroke-linejoin:miter;stroke-miterlimit:10;stroke-dasharray:none;stroke-opacity:1" transform="matrix(0.13333333,0,0,-0.13333333,0,720)"/>
    <path id="path73" d="m 215.898,1955.3 c -7.199,-135.8 11.903,-255.8 59.301,-371.9" class="stroke-background" style="display:inline;fill:none;stroke:#44475a;;stroke-width:344.95;stroke-linecap:butt;stroke-linejoin:miter;stroke-miterlimit:10;stroke-dasharray:none;stroke-opacity:1" transform="matrix(0.13333333,0,0,-0.13333333,0,720)"/>
    <path id="path74" d="m 215.898,1955.3 c -7.199,-135.8 11.903,-255.8 59.301,-371.9" class="stroke-orange" style="fill:none;stroke:#ffb86c;stroke-width:172.478;stroke-linecap:round;stroke-linejoin:miter;stroke-miterlimit:10;stroke-dasharray:none;stroke-opacity:1" transform="matrix(0.13333333,0,0,-0.13333333,0,720)"/>
    <path id="path75" d="M 846.102,4748.8 C 725.801,4713.1 629.398,4658.9 547,4580.9" class="stroke-background" style="display:inline;fill:none;stroke:#44475a;;stroke-width:344.95;stroke-linecap:butt;stroke-linejoin:miter;stroke-miterlimit:10;stroke-dasharray:none;stroke-opacity:1" transform="matrix(0.13333333,0,0,-0.13333333,0,720)"/>
    <path id="path76" d="M 846.102,4748.8 C 725.801,4713.1 629.398,4658.9 547,4580.9" class="stroke-orange" style="fill:none;stroke:#ffb86c;stroke-width:172.478;stroke-linecap:round;stroke-linejoin:miter;stroke-miterlimit:10;stroke-dasharray:none;stroke-opacity:1" transform="matrix(0.13333333,0,0,-0.13333333,0,720)"/>
    <path id="path77" d="m 1664.7,3896.9 c -73.7,-105.2 -150.5,-197.5 -238,-286.3" class="stroke-background" style="display:inline;fill:none;stroke:#44475a;;stroke-width:344.95;stroke-linecap:butt;stroke-linejoin:miter;stroke-miterlimit:10;stroke-dasharray:none;stroke-opacity:1" transform="matrix(0.13333333,0,0,-0.13333333,0,720)"/>
    <path id="path78" d="m 1664.7,3896.9 c -73.7,-105.2 -150.5,-197.5 -238,-286.3" class="stroke-orange" style="fill:none;stroke:#ffb86c;stroke-width:172.478;stroke-linecap:round;stroke-linejoin:miter;stroke-miterlimit:10;stroke-dasharray:none;stroke-opacity:1" transform="matrix(0.13333333,0,0,-0.13333333,0,720)"/>
    <path id="path79" d="m 2684.2,241.699 c 123.6,-46.898 240.1,-64 361,-53.097" class="stroke-background" style="display:inline;fill:none;stroke:#44475a;;stroke-width:344.95;stroke-linecap:butt;stroke-linejoin:miter;stroke-miterlimit:10;stroke-dasharray:none;stroke-opacity:1" transform="matrix(0.13333333,0,0,-0.13333333,0,720)"/>
    <path id="path80" d="m 2684.2,241.699 c 123.6,-46.898 240.1,-64 361,-53.097" class="stroke-orange" style="fill:none;stroke:#ffb86c;stroke-width:172.478;stroke-linecap:round;stroke-linejoin:miter;stroke-miterlimit:10;stroke-dasharray:none;stroke-opacity:1" transform="matrix(0.13333333,0,0,-0.13333333,0,720)"/>
    <path id="path81" d="m 4093.7,4639 c -53.3,133.1 -121.5,241 -211.3,334.5" class="stroke-background" style="display:inline;fill:none;stroke:#44475a;;stroke-width:344.95;stroke-linecap:butt;stroke-linejoin:miter;stroke-miterlimit:10;stroke-dasharray:none;stroke-opacity:1" transform="matrix(0.13333333,0,0,-0.13333333,0,720)"/>
    <path id="path82" d="m 4093.7,4639 c -53.3,133.1 -121.5,241 -211.3,334.5" class="stroke-orange" style="fill:none;stroke:#ffb86c;stroke-width:172.478;stroke-linecap:round;stroke-linejoin:miter;stroke-miterlimit:10;stroke-dasharray:none;stroke-opacity:1" transform="matrix(0.13333333,0,0,-0.13333333,0,720)"/>
    <path id="path83" d="m 1404.6,2222 c 60.6,-93.2 109.1,-190.6 150.3,-302.1" class="stroke-background" style="display:inline;fill:none;stroke:#44475a;;stroke-width:344.95;stroke-linecap:butt;stroke-linejoin:miter;stroke-miterlimit:10;stroke-dasharray:none;stroke-opacity:1" transform="matrix(0.13333333,0,0,-0.13333333,0,720)"/>
    <path id="path84" d="m 1404.6,2222 c 60.6,-93.2 109.1,-190.6 150.3,-302.1" class="stroke-orange" style="fill:none;stroke:#ffb86c;stroke-width:172.478;stroke-linecap:round;stroke-linejoin:miter;stroke-miterlimit:10;stroke-dasharray:none;stroke-opacity:1;marker-start:" transform="matrix(0.13333333,0,0,-0.13333333,0,720)"/>
    <path id="path85" d="m 4819.2,1881.3 c 115.1,83.2 200.9,172.9 266.1,278.2" class="stroke-background" style="display:inline;fill:none;stroke:#44475a;;stroke-width:344.95;stroke-linecap:butt;stroke-linejoin:miter;stroke-miterlimit:10;stroke-dasharray:none;stroke-opacity:1" transform="matrix(0.13333333,0,0,-0.13333333,0,720)"/>
    <path id="path86" d="m 4819.2,1881.3 c 115.1,83.2 200.9,172.9 266.1,278.2" class="stroke-orange" style="fill:none;stroke:#ffb86c;stroke-width:172.478;stroke-linecap:round;stroke-linejoin:miter;stroke-miterlimit:10;stroke-dasharray:none;stroke-opacity:1" transform="matrix(0.13333333,0,0,-0.13333333,0,720)"/>
    <path id="path87" d="m 311.898,2350.3 c -58.296,-140.5 -89.5,-272.1 -96.699,-408" class="stroke-background" style="display:inline;fill:none;stroke:#44475a;;stroke-width:344.95;stroke-linecap:butt;stroke-linejoin:miter;stroke-miterlimit:10;stroke-dasharray:none;stroke-opacity:1" transform="matrix(0.13333333,0,0,-0.13333333,0,720)"/>
    <path id="path88" d="m 311.898,2350.3 c -58.296,-140.5 -89.5,-272.1 -96.699,-408" class="stroke-orange" style="fill:none;stroke:#ffb86c;stroke-width:172.478;stroke-linecap:round;stroke-linejoin:miter;stroke-miterlimit:10;stroke-dasharray:none;stroke-opacity:1" transform="matrix(0.13333333,0,0,-0.13333333,0,720)"/>
    <path id="path89" d="m 3905.7,2595.3 c 15.3,118.2 40.4,234.7 77.9,361.1" class="stroke-background" style="display:inline;fill:none;stroke:#44475a;;stroke-width:344.95;stroke-linecap:butt;stroke-linejoin:miter;stroke-miterlimit:10;stroke-dasharray:none;stroke-opacity:1" transform="matrix(0.13333333,0,0,-0.13333333,0,720)"/>
    <path id="path90" d="m 3905.7,2595.3 c 15.3,118.2 40.4,234.7 77.9,361.1" class="stroke-orange" style="fill:none;stroke:#ffb86c;stroke-width:172.478;stroke-linecap:round;stroke-linejoin:miter;stroke-miterlimit:10;stroke-dasharray:none;stroke-opacity:1" transform="matrix(0.13333333,0,0,-0.13333333,0,720)"/>
    <path id="path91" d="m 2821,1467.4 c 112.6,26.2 226.6,41.5 353.3,47.2" class="stroke-background" style="display:inline;fill:none;stroke:#44475a;;stroke-width:344.95;stroke-linecap:butt;stroke-linejoin:miter;stroke-miterlimit:10;stroke-dasharray:none;stroke-opacity:1" transform="matrix(0.13333333,0,0,-0.13333333,0,720)"/>
    <path id="path92" d="m 2821,1467.4 c 112.6,26.2 226.6,41.5 353.3,47.2" class="stroke-orange" style="fill:none;stroke:#ffb86c;stroke-width:172.478;stroke-linecap:round;stroke-linejoin:miter;stroke-miterlimit:10;stroke-dasharray:none;stroke-opacity:1" transform="matrix(0.13333333,0,0,-0.13333333,0,720)"/>
    <path id="path93" d="m 3053.6,3924.1 c -99.2,46.5 -194.9,102.1 -296.7,172.1" class="stroke-background" style="display:inline;fill:none;stroke:#44475a;;stroke-width:344.95;stroke-linecap:butt;stroke-linejoin:miter;stroke-miterlimit:10;stroke-dasharray:none;stroke-opacity:1" transform="matrix(0.13333333,0,0,-0.13333333,0,720)"/>
    <path id="path94" d="m 3053.6,3924.1 c -99.2,46.5 -194.9,102.1 -296.7,172.1" class="stroke-orange" style="fill:none;stroke:#ffb86c;stroke-width:172.478;stroke-linecap:round;stroke-linejoin:miter;stroke-miterlimit:10;stroke-dasharray:none;stroke-opacity:1" transform="matrix(0.13333333,0,0,-0.13333333,0,720)"/>
    <path id="path95" d="M 2346.3,450 C 2459.6,352.801 2572.4,284.102 2696,237.199" class="stroke-background" style="display:inline;fill:none;stroke:#44475a;;stroke-width:344.95;stroke-linecap:butt;stroke-linejoin:miter;stroke-miterlimit:10;stroke-dasharray:none;stroke-opacity:1" transform="matrix(0.13333333,0,0,-0.13333333,0,720)"/>
    <path id="path96" d="M 2346.3,450 C 2459.6,352.801 2572.4,284.102 2696,237.199" class="stroke-orange" style="fill:none;stroke:#ffb86c;stroke-width:172.478;stroke-linecap:round;stroke-linejoin:miter;stroke-miterlimit:10;stroke-dasharray:none;stroke-opacity:1" transform="matrix(0.13333333,0,0,-0.13333333,0,720)"/>
    <path id="path97" d="M 1225.5,4785.7 C 1080.9,4794 954.801,4781 834.602,4745.4" class="stroke-background" style="display:inline;fill:none;stroke:#44475a;;stroke-width:344.95;stroke-linecap:butt;stroke-linejoin:miter;stroke-miterlimit:10;stroke-dasharray:none;stroke-opacity:1" transform="matrix(0.13333333,0,0,-0.13333333,0,720)"/>
    <path id="path98" d="M 1225.5,4785.7 C 1080.9,4794 954.801,4781 834.602,4745.4" class="stroke-orange" style="fill:none;stroke:#ffb86c;stroke-width:172.478;stroke-linecap:round;stroke-linejoin:miter;stroke-miterlimit:10;stroke-dasharray:none;stroke-opacity:1" transform="matrix(0.13333333,0,0,-0.13333333,0,720)"/>
    <path id="path99" d="m 1435,3619 c -87.6,-88.8 -180.9,-174.2 -289.3,-264.8" class="stroke-background" style="display:inline;fill:none;stroke:#44475a;;stroke-width:344.95;stroke-linecap:butt;stroke-linejoin:miter;stroke-miterlimit:10;stroke-dasharray:none;stroke-opacity:1" transform="matrix(0.13333333,0,0,-0.13333333,0,720)"/>
    <path id="path100" d="m 1435,3619 c -87.6,-88.8 -180.9,-174.2 -289.3,-264.8" class="stroke-orange" style="fill:none;stroke:#ffb86c;stroke-width:172.478;stroke-linecap:round;stroke-linejoin:miter;stroke-miterlimit:10;stroke-dasharray:none;stroke-opacity:1" transform="matrix(0.13333333,0,0,-0.13333333,0,720)"/>
    <path id="path101" d="m 4188.2,4224.3 c -14.1,156.5 -46.2,294.3 -99.6,427.4" class="stroke-background" style="display:inline;fill:none;stroke:#44475a;;stroke-width:344.95;stroke-linecap:butt;stroke-linejoin:miter;stroke-miterlimit:10;stroke-dasharray:none;stroke-opacity:1" transform="matrix(0.13333333,0,0,-0.13333333,0,720)"/>
    <path id="path102" d="m 4188.2,4224.3 c -14.1,156.5 -46.2,294.3 -99.6,427.4" class="stroke-orange" style="fill:none;stroke:#ffb86c;stroke-width:172.478;stroke-linecap:round;stroke-linejoin:miter;stroke-miterlimit:10;stroke-dasharray:none;stroke-opacity:1" transform="matrix(0.13333333,0,0,-0.13333333,0,720)"/>
    <path id="path103" d="m 4440.6,1686.3 c 148.8,54.3 274.5,119.8 389.5,202.9" class="stroke-background" style="display:inline;fill:none;stroke:#44475a;;stroke-width:344.95;stroke-linecap:butt;stroke-linejoin:miter;stroke-miterlimit:10;stroke-dasharray:none;stroke-opacity:1" transform="matrix(0.13333333,0,0,-0.13333333,0,720)"/>
    <path id="path104" d="m 4440.6,1686.3 c 148.8,54.3 274.5,119.8 389.5,202.9" class="stroke-orange" style="fill:none;stroke:#ffb86c;stroke-width:172.478;stroke-linecap:round;stroke-linejoin:miter;stroke-miterlimit:10;stroke-dasharray:none;stroke-opacity:1" transform="matrix(0.13333333,0,0,-0.13333333,0,720)"/>
    <path id="path105" d="M 535.199,2736.4 C 438.398,2606.3 364.602,2477.4 306.301,2336.9" class="stroke-background" style="display:inline;fill:none;stroke:#44475a;;stroke-width:344.95;stroke-linecap:butt;stroke-linejoin:miter;stroke-miterlimit:10;stroke-dasharray:none;stroke-opacity:1" transform="matrix(0.13333333,0,0,-0.13333333,0,720)"/>
    <path id="path106" d="M 535.199,2736.4 C 438.398,2606.3 364.602,2477.4 306.301,2336.9" class="stroke-orange" style="fill:none;stroke:#ffb86c;stroke-width:172.478;stroke-linecap:round;stroke-linejoin:miter;stroke-miterlimit:10;stroke-dasharray:none;stroke-opacity:1" transform="matrix(0.13333333,0,0,-0.13333333,0,720)"/>
    <path id="path107" d="m 1551,1930.5 c 41.2,-111.4 82,-229.1 126.4,-364.7" class="stroke-background" style="display:inline;fill:none;stroke:#44475a;;stroke-width:344.95;stroke-linecap:butt;stroke-linejoin:miter;stroke-miterlimit:10;stroke-dasharray:none;stroke-opacity:1" transform="matrix(0.13333333,0,0,-0.13333333,0,720)"/>
    <path id="path108" d="m 1551,1930.5 c 41.2,-111.4 82,-229.1 126.4,-364.7" class="stroke-orange" style="fill:none;stroke:#ffb86c;stroke-width:172.478;stroke-linecap:round;stroke-linejoin:miter;stroke-miterlimit:10;stroke-dasharray:none;stroke-opacity:1" transform="matrix(0.13333333,0,0,-0.13333333,0,720)"/>
    <path id="path109" d="m 3980.1,2944.3 c 37.5,126.4 74.5,256.4 114.6,403" class="stroke-background" style="display:inline;fill:none;stroke:#44475a;;stroke-width:344.95;stroke-linecap:butt;stroke-linejoin:miter;stroke-miterlimit:10;stroke-dasharray:none;stroke-opacity:1" transform="matrix(0.13333333,0,0,-0.13333333,0,720)"/>
    <path id="path110" d="m 3980.1,2944.3 c 37.5,126.4 74.5,256.4 114.6,403" class="stroke-orange" style="fill:none;stroke:#ffb86c;stroke-width:172.478;stroke-linecap:round;stroke-linejoin:miter;stroke-miterlimit:10;stroke-dasharray:none;stroke-opacity:1" transform="matrix(0.13333333,0,0,-0.13333333,0,720)"/>
    <path id="path111" d="M 1156.1,3362.8 C 1047.7,3272.2 941.5,3176.9 827,3067.4" class="stroke-background" style="display:inline;fill:none;stroke:#44475a;;stroke-width:344.95;stroke-linecap:butt;stroke-linejoin:miter;stroke-miterlimit:10;stroke-dasharray:none;stroke-opacity:1" transform="matrix(0.13333333,0,0,-0.13333333,0,720)"/>
    <path id="path112" d="M 1156.1,3362.8 C 1047.7,3272.2 941.5,3176.9 827,3067.4" class="stroke-orange" style="fill:none;stroke:#ffb86c;stroke-width:172.478;stroke-linecap:round;stroke-linejoin:miter;stroke-miterlimit:10;stroke-dasharray:none;stroke-opacity:1" transform="matrix(0.13333333,0,0,-0.13333333,0,720)"/>
    <path id="path113" d="m 3162.3,1514.1 c 126.7,5.7 258.3,11.2 407.9,16.9" class="stroke-background" style="display:inline;fill:none;stroke:#44475a;;stroke-width:344.95;stroke-linecap:butt;stroke-linejoin:miter;stroke-miterlimit:10;stroke-dasharray:none;stroke-opacity:1" transform="matrix(0.13333333,0,0,-0.13333333,0,720)"/>
    <path id="path114" d="m 3162.3,1514.1 c 126.7,5.7 258.3,11.2 407.9,16.9" class="stroke-orange" style="fill:none;stroke:#ffb86c;stroke-width:172.478;stroke-linecap:round;stroke-linejoin:miter;stroke-miterlimit:10;stroke-dasharray:none;stroke-opacity:1" transform="matrix(0.13333333,0,0,-0.13333333,0,720)"/>
    <path id="path115" d="m 2053.8,779.801 c 92.2,-132.403 190,-241.699 303.3,-339" class="stroke-background" style="display:inline;fill:none;stroke:#44475a;;stroke-width:344.95;stroke-linecap:butt;stroke-linejoin:miter;stroke-miterlimit:10;stroke-dasharray:none;stroke-opacity:1" transform="matrix(0.13333333,0,0,-0.13333333,0,720)"/>
    <path id="path116" d="m 2053.8,779.801 c 92.2,-132.403 190,-241.699 303.3,-339" class="stroke-orange" style="fill:none;stroke:#ffb86c;stroke-width:172.478;stroke-linecap:round;stroke-linejoin:miter;stroke-miterlimit:10;stroke-dasharray:none;stroke-opacity:1" transform="matrix(0.13333333,0,0,-0.13333333,0,720)"/>
    <path id="path117" d="m 837.898,3077.8 c -114.5,-109.5 -215.199,-223.6 -312,-353.7" class="stroke-background" style="display:inline;fill:none;stroke:#44475a;;stroke-width:344.95;stroke-linecap:butt;stroke-linejoin:miter;stroke-miterlimit:10;stroke-dasharray:none;stroke-opacity:1" transform="matrix(0.13333333,0,0,-0.13333333,0,720)"/>
    <path id="path118" d="m 837.898,3077.8 c -114.5,-109.5 -215.199,-223.6 -312,-353.7" class="stroke-orange" style="fill:none;stroke:#ffb86c;stroke-width:172.478;stroke-linecap:round;stroke-linejoin:miter;stroke-miterlimit:10;stroke-dasharray:none;stroke-opacity:1" transform="matrix(0.13333333,0,0,-0.13333333,0,720)"/>
    <path id="path119" d="m 4177.9,3771.3 c 20.2,160.4 23.1,311.4 9,467.9" class="stroke-background" style="display:inline;fill:none;stroke:#44475a;;stroke-width:344.95;stroke-linecap:butt;stroke-linejoin:miter;stroke-miterlimit:10;stroke-dasharray:none;stroke-opacity:1" transform="matrix(0.13333333,0,0,-0.13333333,0,720)"/>
    <path id="path120" d="m 4177.9,3771.3 c 20.2,160.4 23.1,311.4 9,467.9" class="stroke-orange" style="fill:none;stroke:#ffb86c;stroke-width:172.478;stroke-linecap:round;stroke-linejoin:miter;stroke-miterlimit:10;stroke-dasharray:none;stroke-opacity:1" transform="matrix(0.13333333,0,0,-0.13333333,0,720)"/>
    <path id="path121" d="m 1649.7,4704.3 c -152.1,47.3 -293.4,73.8 -438,82.2" class="stroke-background" style="display:inline;fill:none;stroke:#44475a;;stroke-width:344.95;stroke-linecap:butt;stroke-linejoin:miter;stroke-miterlimit:10;stroke-dasharray:none;stroke-opacity:1" transform="matrix(0.13333333,0,0,-0.13333333,0,720)"/>
    <path id="path122" d="m 1649.7,4704.3 c -152.1,47.3 -293.4,73.8 -438,82.2" class="stroke-orange" style="fill:none;stroke:#ffb86c;stroke-width:172.478;stroke-linecap:round;stroke-linejoin:miter;stroke-miterlimit:10;stroke-dasharray:none;stroke-opacity:1" transform="matrix(0.13333333,0,0,-0.13333333,0,720)"/>
    <path id="path123" d="m 2766.6,4089.5 c -101.8,70 -208.4,142.4 -330.2,224.6" class="stroke-background" style="display:inline;fill:none;stroke:#44475a;;stroke-width:344.95;stroke-linecap:butt;stroke-linejoin:miter;stroke-miterlimit:10;stroke-dasharray:none;stroke-opacity:1" transform="matrix(0.13333333,0,0,-0.13333333,0,720)"/>
    <path id="path124" d="m 2766.6,4089.5 c -101.8,70 -208.4,142.4 -330.2,224.6" class="stroke-orange" style="fill:none;stroke:#ffb86c;stroke-width:172.478;stroke-linecap:round;stroke-linejoin:miter;stroke-miterlimit:10;stroke-dasharray:none;stroke-opacity:1" transform="matrix(0.13333333,0,0,-0.13333333,0,720)"/>
    <path id="path125" d="m 4090.8,3333.3 c 40.1,146.6 68.8,292.8 89,453.3" class="stroke-background" style="display:inline;fill:none;stroke:#44475a;;stroke-width:344.95;stroke-linecap:butt;stroke-linejoin:miter;stroke-miterlimit:10;stroke-dasharray:none;stroke-opacity:1" transform="matrix(0.13333333,0,0,-0.13333333,0,720)"/>
    <path id="path126" d="m 4090.8,3333.3 c 40.1,146.6 68.8,292.8 89,453.3" class="stroke-orange" style="fill:none;stroke:#ffb86c;stroke-width:172.478;stroke-linecap:round;stroke-linejoin:miter;stroke-miterlimit:10;stroke-dasharray:none;stroke-opacity:1" transform="matrix(0.13333333,0,0,-0.13333333,0,720)"/>
    <path id="path127" d="m 3998.3,1573.9 c 160.5,25.3 307.7,63.2 456.5,117.6" class="stroke-background" style="display:inline;fill:none;stroke:#44475a;;stroke-width:344.95;stroke-linecap:butt;stroke-linejoin:miter;stroke-miterlimit:10;stroke-dasharray:none;stroke-opacity:1" transform="matrix(0.13333333,0,0,-0.13333333,0,720)"/>
    <path id="path128" d="m 3998.3,1573.9 c 160.5,25.3 307.7,63.2 456.5,117.6" class="stroke-orange" style="fill:none;stroke:#ffb86c;stroke-width:172.478;stroke-linecap:round;stroke-linejoin:miter;stroke-miterlimit:10;stroke-dasharray:none;stroke-opacity:1" transform="matrix(0.13333333,0,0,-0.13333333,0,720)"/>
    <path id="path129" d="m 1673.1,1578.7 c 44.4,-135.6 96.9,-269.5 162.7,-415.1" class="stroke-background" style="display:inline;fill:none;stroke:#44475a;;stroke-width:344.95;stroke-linecap:butt;stroke-linejoin:miter;stroke-miterlimit:10;stroke-dasharray:none;stroke-opacity:1" transform="matrix(0.13333333,0,0,-0.13333333,0,720)"/>
    <path id="path130" d="m 1673.1,1578.7 c 44.4,-135.6 96.9,-269.5 162.7,-415.1" class="stroke-orange" style="fill:none;stroke:#ffb86c;stroke-width:172.478;stroke-linecap:round;stroke-linejoin:miter;stroke-miterlimit:10;stroke-dasharray:none;stroke-opacity:1" transform="matrix(0.13333333,0,0,-0.13333333,0,720)"/>
    <path id="path131" d="m 3556,1530.5 c 149.6,5.7 297.2,20.5 457.6,45.8" class="stroke-background" style="display:inline;fill:none;stroke:#44475a;;stroke-width:344.95;stroke-linecap:butt;stroke-linejoin:miter;stroke-miterlimit:10;stroke-dasharray:none;stroke-opacity:1" transform="matrix(0.13333333,0,0,-0.13333333,0,720)"/>
    <path id="path132" d="m 3556,1530.5 c 149.6,5.7 297.2,20.5 457.6,45.8" class="stroke-orange" style="fill:none;stroke:#ffb86c;stroke-width:172.478;stroke-linecap:round;stroke-linejoin:miter;stroke-miterlimit:10;stroke-dasharray:none;stroke-opacity:1" transform="matrix(0.13333333,0,0,-0.13333333,0,720)"/>
    <path id="path133" d="m 1829.5,1177.5 c 65.8,-145.6 141,-278 233.1,-410.301" class="stroke-background" style="display:inline;fill:none;stroke:#44475a;;stroke-width:344.95;stroke-linecap:butt;stroke-linejoin:miter;stroke-miterlimit:10;stroke-dasharray:none;stroke-opacity:1" transform="matrix(0.13333333,0,0,-0.13333333,0,720)"/>
    <path id="path134" d="m 1829.5,1177.5 c 65.8,-145.6 141,-278 233.1,-410.301" class="stroke-orange" style="fill:none;stroke:#ffb86c;stroke-width:172.478;stroke-linecap:round;stroke-linejoin:miter;stroke-miterlimit:10;stroke-dasharray:none;stroke-opacity:1" transform="matrix(0.13333333,0,0,-0.13333333,0,720)"/>
    <path id="path135" d="m 2070.8,4529.7 c -142.9,74 -283.4,131.8 -435.6,179.1" class="stroke-background" style="display:inline;fill:none;stroke:#44475a;;stroke-width:344.95;stroke-linecap:butt;stroke-linejoin:miter;stroke-miterlimit:10;stroke-dasharray:none;stroke-opacity:1" transform="matrix(0.13333333,0,0,-0.13333333,0,720)"/>
    <path id="path136" d="m 2070.8,4529.7 c -142.9,74 -283.4,131.8 -435.6,179.1" class="stroke-orange" style="fill:none;stroke:#ffb86c;stroke-width:172.478;stroke-linecap:round;stroke-linejoin:miter;stroke-miterlimit:10;stroke-dasharray:none;stroke-opacity:1" transform="matrix(0.13333333,0,0,-0.13333333,0,720)"/>
    <path id="path137" d="m 2448,4306.2 c -121.9,82.2 -247.9,156.5 -390.8,230.5" class="stroke-background" style="display:inline;fill:none;stroke:#44475a;;stroke-width:344.95;stroke-linecap:butt;stroke-linejoin:miter;stroke-miterlimit:10;stroke-dasharray:none;stroke-opacity:1" transform="matrix(0.13333333,0,0,-0.13333333,0,720)"/>
    <path id="path138" d="m 2448,4306.2 c -121.9,82.2 -247.9,156.5 -390.8,230.5" class="stroke-orange" style="fill:none;stroke:#ffb86c;stroke-width:172.478;stroke-linecap:round;stroke-linejoin:miter;stroke-miterlimit:10;stroke-dasharray:none;stroke-opacity:1" transform="matrix(0.13333333,0,0,-0.13333333,0,720)"/>
  </g>
</svg>
