<?xml version="1.0" encoding="UTF-8" standalone="no"?>
<svg
   viewBox="0 0 890.70751 342.21183"
   version="1.1"
   id="svg21826"
   xml:space="preserve"
   inkscape:version="1.4 (e7c3feb100, 2024-10-09)"
   sodipodi:docname="tangle_maker.svg"
   width="890.70752"
   height="342.21182"
   xmlns:inkscape="http://www.inkscape.org/namespaces/inkscape"
   xmlns:sodipodi="http://sodipodi.sourceforge.net/DTD/sodipodi-0.dtd"
   xmlns="http://www.w3.org/2000/svg"
   xmlns:svg="http://www.w3.org/2000/svg">
    <sodipodi:namedview
   id="namedview21828"
   pagecolor="#44475a"
   bordercolor="#666666"
   borderopacity="1.0"
   inkscape:showpageshadow="2"
   inkscape:pageopacity="0.0"
   inkscape:pagecheckerboard="0"
   inkscape:deskcolor="#d1d1d1"
   inkscape:document-units="mm"
   showgrid="true"
   inkscape:zoom="1.6970369"
   inkscape:cx="432.22395"
   inkscape:cy="7.9550421"
   inkscape:window-width="2234"
   inkscape:window-height="1418"
   inkscape:window-x="0"
   inkscape:window-y="0"
   inkscape:window-maximized="1"
   inkscape:current-layer="layer1"
   showguides="true">
        <sodipodi:guide
   position="37.758545,311.30312"
   orientation="1,0"
   id="guide1"
   inkscape:locked="false" />
        <inkscape:grid
   id="grid1"
   units="mm"
   originx="38.510541"
   originy="-54.969013"
   spacingx="3.7795275"
   spacingy="3.7795276"
   empcolor="#0099e5"
   empopacity="0.30196078"
   color="#0099e5"
   opacity="0.14901961"
   empspacing="5"
   dotted="false"
   gridanglex="30"
   gridanglez="30"
   visible="true" />
    </sodipodi:namedview>
    <defs
   id="defs21823">
        <clipPath
   clipPathUnits="userSpaceOnUse"
   id="clipPath5">
            <rect
   class="fill-foreground stroke-foreground"
   style="fill:#44475a;stroke:#44475a;stroke-width:0;stroke-linejoin:bevel;paint-order:stroke markers fill;stop-color:#000000"
   id="rect5-4"
   width="20"
   height="200"
   x="530"
   y="595" />
        </clipPath>





    </defs>
    <path
   class="fill-blue"
   style="display:inline;mix-blend-mode:normal;fill:#44475a;fill-opacity:1;stroke:#44475a;stroke-width:10.1783;stroke-dasharray:none;stroke-opacity:1"
   d="m 91.876089,336.92029 c -40.02007,-3.62592 -73.49665,-31.90348 -83.7539,-70.74663 -4.01331,-15.198 -4.01331,-33.36826 0,-48.56626 9.67937,-36.65479 39.63748,-63.73394 77.4039,-69.96541 6.99154,-1.15361 22.641781,-1.15361 29.633331,0 41.25671,6.80738 72.6245,38.17516 79.43188,79.43187 1.84983,11.21107 0.9976,27.64223 -2.02799,39.0998 -9.6571,36.57046 -39.81128,63.87166 -77.2275,69.92077 -4.45449,0.72016 -18.981821,1.23157 -23.459721,0.82586 z m 22.401391,-5.72037 c 52.7555,-8.69562 86.4767,-59.58006 73.70138,-111.21356 -8.70542,-35.18434 -37.59744,-61.55296 -73.87777,-67.42537 -6.89864,-1.11662 -21.006791,-1.11782 -27.693061,-0.002 -39.31274,6.55855 -69.06848,36.34829 -75.38547,75.47163 -1.06803,6.61474 -1.14732,20.30013 -0.15489,26.73666 6.48822,42.08024 39.94542,73.56139 82.06675,77.21968 4.23024,0.3674 17.253601,-0.11262 21.343061,-0.78668 z"
   id="path6"
   inkscape:label="path21850" /><path
   class="fill-blue"
   style="display:inline;mix-blend-mode:normal;fill:#44475a;fill-opacity:1;stroke:#44475a;stroke-width:10.1783;stroke-dasharray:none;stroke-opacity:1"
   d="m 526.19822,266.23459 c -40.02006,-3.62592 -73.49664,-31.90348 -83.75389,-70.74663 -4.01331,-15.198 -4.01331,-33.36826 0,-48.56626 9.67937,-36.65479 39.63748,-63.733939 77.40389,-69.965409 6.99154,-1.15361 22.64178,-1.15361 29.63333,0 41.25671,6.80738 72.6245,38.175159 79.43188,79.431869 1.84983,11.21107 0.9976,27.64223 -2.02799,39.0998 -9.6571,36.57046 -39.81128,63.87166 -77.2275,69.92077 -4.45449,0.72016 -18.98182,1.23157 -23.45972,0.82586 z m 22.40139,-5.72037 c 52.7555,-8.69562 86.4767,-59.58006 73.70138,-111.21356 -8.70542,-35.18434 -37.59744,-61.552959 -73.87777,-67.425369 -6.89864,-1.11662 -21.00679,-1.11782 -27.69306,-0.002 -39.31273,6.55855 -69.06847,36.348289 -75.38546,75.471629 -1.06803,6.61474 -1.14732,20.30013 -0.15489,26.73666 6.48822,42.08024 39.94542,73.56139 82.06674,77.21968 4.23024,0.3674 17.2536,-0.11262 21.34306,-0.78668 z"
   id="path7"
   inkscape:label="path21850" /><path
   class="fill-blue"
   style="display:inline;mix-blend-mode:normal;fill:#44475a;fill-opacity:1;stroke:#44475a;stroke-width:10.1783;stroke-dasharray:none;stroke-opacity:1"
   d="m 781.89199,266.23458 c -40.02006,-3.62592 -73.49664,-31.90348 -83.75389,-70.74663 -4.01331,-15.19799 -4.01331,-33.36825 0,-48.56626 9.67937,-36.65478 39.63748,-63.733929 77.40389,-69.965409 6.99154,-1.15361 22.64178,-1.15361 29.63333,0 41.25671,6.80738 72.6245,38.175159 79.43188,79.431869 1.84983,11.21107 0.9976,27.64223 -2.02799,39.0998 -9.6571,36.57046 -39.81128,63.87167 -77.2275,69.92078 -4.45449,0.72016 -18.98182,1.23156 -23.45972,0.82585 z m 22.40139,-5.72037 c 52.7555,-8.69562 86.4767,-59.58006 73.70138,-111.21356 -8.70542,-35.18434 -37.59744,-61.552959 -73.87777,-67.425369 -6.89864,-1.11662 -21.00679,-1.11782 -27.69306,-0.002 -39.31273,6.55855 -69.06847,36.348289 -75.38546,75.471629 -1.06803,6.61474 -1.14732,20.30013 -0.15489,26.73666 6.48822,42.08024 39.94542,73.56139 82.06674,77.21968 4.23024,0.3674 17.2536,-0.11262 21.34306,-0.78668 z"
   id="path8"
   inkscape:label="path21850" /><path
   class="stroke-orange"
   style="fill:none;stroke:#44475a;stroke-width:15.1181;stroke-linecap:round;stroke-dasharray:none"
   d="m 271.78645,144.68881 c -1.50748,-6.33181 -0.22626,-14.21824 -1.70607,-20.78243 -3.95158,-17.5285 -11.76406,-32.787529 -3.4233,-50.600689 16.38563,-34.994444 77.8668,-34.010696 98.1037,-3.61434 13.69826,20.57516 -0.20017,43.723759 -3.2483,65.058039 -1.38656,9.7047 1.12265,20.19032 -0.69373,29.81826 -1.64571,8.72331 -10.36721,22.79008 -20.35992,18.07168 m -56.92579,-25.30035 c 12.0295,-0.10887 18.23031,-19.09705 29.81827,-13.55375 m -28.0111,30.72184 c -4.13585,-1.63013 -9.91412,-3.60625 -11.35128,-9.03932 -2.32112,-8.77491 7.78103,-23.33101 16.77278,-21.68252 m 13.55376,12.65017 c 9.75885,2.11547 25.6933,-15.48736 28.38062,0.90218 0.34643,2.1128 0.48989,4.18628 0.53407,6.32649 m -16.26452,0.90358 c -3.6469,12.24311 -39.42631,11.98403 -29.81827,29.81827 m 16.26451,9.93942 c 4.5135,-5e-4 8.77481,0.2759 12.64948,-2.39701 13.45409,-9.2812 14.04873,-33.57093 33.43331,-33.74634 m 11.74659,13.55375 c 0.34346,7.99915 -0.0133,17.91946 0,26.20394 0.004,2.52341 -0.049,4.57982 0.41903,7.22867 3.08257,17.44554 15.28434,37.23862 8.18385,55.11861 -13.98171,35.20777 -88.31652,32.84497 -103.58866,-2.71075 -7.8005,-18.16069 4.28007,-41.5278 16.41999,-55.11513 6.38418,-7.14535 21.12828,-16.2829 18.02566,-27.111"
   id="path3"
   sodipodi:nodetypes="csssssccccsccsccccsccccsssc" /><path
   class="stroke-orange"
   style="fill:none;stroke:#44475a;stroke-width:15.1181;stroke-linecap:round;stroke-dasharray:none"
   d="m 488.94752,144.68881 c -1.50748,-6.33181 -0.22626,-14.21824 -1.70607,-20.78243 -3.95158,-17.5285 -11.76406,-32.787529 -3.4233,-50.600689 16.38563,-34.994443 77.8668,-34.010693 98.1037,-3.61434 13.69826,20.57516 -0.20017,43.723759 -3.2483,65.058039 -1.38656,9.7047 1.12265,20.19032 -0.69373,29.81826 -1.64571,8.72331 -10.36721,22.79008 -20.35992,18.07168 m -56.92579,-25.30035 c 12.0295,-0.10887 18.23031,-19.09705 29.81827,-13.55375 m -28.0111,30.72184 c -4.13585,-1.63013 -9.91412,-3.60625 -11.35128,-9.03932 -2.32112,-8.77491 7.78103,-23.33101 16.77278,-21.68252 m 13.55376,12.65017 c 9.75885,2.11547 25.6933,-15.48736 28.38062,0.90218 0.34643,2.1128 0.48989,4.18628 0.53407,6.32649 m -16.26452,0.90358 c -3.6469,12.24311 -39.42631,11.98403 -29.81827,29.81827 m 16.26451,9.93942 c 4.5135,-5e-4 8.77481,0.2759 12.64948,-2.39701 13.45409,-9.2812 14.04873,-33.57093 33.43331,-33.74634 m 11.74659,13.55375 c 0.34346,7.99915 -0.0133,17.91946 0,26.20394 0.004,2.52341 -0.049,4.57982 0.41903,7.22867 3.08257,17.44554 15.28434,37.23862 8.18385,55.11861 -13.98171,35.20777 -88.31652,32.84497 -103.58866,-2.71075 -7.8005,-18.16069 4.28007,-41.5278 16.41999,-55.11513 6.38418,-7.14535 21.12828,-16.2829 18.02566,-27.111"
   id="path4"
   sodipodi:nodetypes="csssssccccsccsccccsccccsssc" /><path
   class="stroke-orange"
   style="fill:none;stroke:#44475a;stroke-width:15.1181;stroke-linecap:round;stroke-dasharray:none"
   d="m 744.64129,144.6888 c -1.50748,-6.33181 -0.22626,-14.21824 -1.70607,-20.78243 -2.223,-9.86084 -5.66788,-19.00346 -6.7714,-28.286619 m 107.11992,-0.44352 c -1.30608,13.209959 -7.08014,26.720779 -8.91642,39.573149 -1.38656,9.7047 1.12265,20.19032 -0.69373,29.81826 -1.64571,8.72331 -10.36721,22.79008 -20.35992,18.07168 m -56.92579,-25.30035 c 12.0295,-0.10887 18.23031,-19.09705 29.81827,-13.55375 m -28.0111,30.72184 c -4.13585,-1.63013 -9.91412,-3.60625 -11.35128,-9.03932 -2.32112,-8.77491 7.78103,-23.33101 16.77278,-21.68252 m 13.55376,12.65017 c 9.75885,2.11547 25.6933,-15.48736 28.38062,0.90218 0.34643,2.1128 0.48989,4.18628 0.53407,6.32649 m -16.26452,0.90358 c -3.6469,12.24311 -39.42631,11.98403 -29.81827,29.81827 m 16.26451,9.93942 c 4.5135,-5e-4 8.77481,0.2759 12.64948,-2.39701 13.45409,-9.2812 14.04873,-33.57093 33.43331,-33.74634 m 11.74659,13.55375 c 0.34346,7.99915 -0.0133,17.91946 0,26.20394 0.004,2.52341 -0.049,4.57982 0.41903,7.22867 1.81142,10.25157 6.77181,21.31378 9.11398,32.32207 m -106.37908,0.45952 c 2.2353,-13.21706 10.24479,-26.49532 18.28028,-35.48886 6.38418,-7.14535 21.12828,-16.2829 18.02566,-27.111"
   id="path5"
   sodipodi:nodetypes="csccssccccsccsccccsccccccsc" /><g
   inkscape:label="Layer 1"
   inkscape:groupmode="layer"
   id="layer1"
   transform="translate(29.287689,-53.470479)">










        <path
   class="stroke-orange"
   style="fill:none;stroke:#44475a;stroke-width:15.1181;stroke-linecap:round;stroke-dasharray:none"
   d="m 26.247258,99.141752 c 0.358111,-62.086658 94.846292,-43.18902 89.032292,19.878838 -0.8149,8.83971 -10.3672,22.79008 -20.359914,18.07168 M 37.993849,111.79192 C 50.023354,111.68305 56.224159,92.694872 67.812115,98.238172 M 39.801016,128.96001 c -4.135848,-1.63013 -9.914118,-3.60625 -11.351272,-9.03932 -2.321121,-8.77491 7.781028,-23.331008 16.772776,-21.682518 m 13.553758,12.650168 c 9.758849,2.11547 25.693297,-15.487358 28.380624,0.90218 0.346425,2.1128 0.489887,4.18628 0.534063,6.32649 m -16.264514,0.90358 C 67.77955,131.2637 32.000135,131.00462 41.608184,148.83886 m 16.26451,9.93942 c 4.513497,-5e-4 8.774808,0.2759 12.649477,-2.39701 13.454084,-9.2812 14.048732,-33.57093 33.433299,-33.74634 m 11.74659,13.55375 c 0.34346,7.99915 -0.0133,17.91946 0,26.20394 0.0406,25.62015 -64.958673,30.98795 -78.565779,4.5214 -4.961999,-9.65135 21.128277,-16.2829 18.025661,-27.111"
   id="path2"
   sodipodi:nodetypes="csccccsccsccccscccac" /><g
   id="g2"><path
     class="stroke-orange"
     style="fill:none;stroke:#ffb86c;stroke-width:4.32012;stroke-linecap:round;stroke-dasharray:none"
     d="m 242.49876,198.15929 c -1.50748,-6.33181 -0.22626,-14.21824 -1.70607,-20.78243 -3.95158,-17.5285 -11.76406,-32.78753 -3.4233,-50.60069 16.38563,-34.994444 77.8668,-34.010696 98.1037,-3.61434 13.69826,20.57516 -0.20017,43.72376 -3.2483,65.05804 -1.38656,9.7047 1.12265,20.19032 -0.69373,29.81826 -1.64571,8.72331 -10.36721,22.79008 -20.35992,18.07168 m -56.92579,-25.30035 c 12.0295,-0.10887 18.23031,-19.09705 29.81827,-13.55375 m -28.0111,30.72184 c -4.13585,-1.63013 -9.91412,-3.60625 -11.35128,-9.03932 -2.32112,-8.77491 7.78103,-23.33101 16.77278,-21.68252 m 13.55376,12.65017 c 9.75885,2.11547 25.6933,-15.48736 28.38062,0.90218 0.34643,2.1128 0.48989,4.18628 0.53407,6.32649 m -16.26452,0.90358 c -3.6469,12.24311 -39.42631,11.98403 -29.81827,29.81827 m 16.26451,9.93942 c 4.5135,-5e-4 8.77481,0.2759 12.64948,-2.39701 13.45409,-9.2812 14.04873,-33.57093 33.43331,-33.74634 m 11.74659,13.55375 c 0.34346,7.99915 -0.0133,17.91946 0,26.20394 0.004,2.52341 -0.049,4.57982 0.41903,7.22867 3.08257,17.44554 15.28434,37.23862 8.18385,55.11861 -13.98171,35.20777 -88.31652,32.84497 -103.58866,-2.71075 -7.8005,-18.16069 4.28007,-41.5278 16.41999,-55.11513 6.38418,-7.14535 21.12828,-16.2829 18.02566,-27.111"
     id="path1-6"
     sodipodi:nodetypes="csssssccccsccsccccsccccsssc" /><path
     class="stroke-orange"
     style="fill:none;stroke:#ffb86c;stroke-width:4.32012;stroke-linecap:round;stroke-dasharray:none"
     d="m 26.247258,99.141752 c 0.358111,-62.086658 94.846292,-43.18902 89.032292,19.878838 -0.8149,8.83971 -10.3672,22.79008 -20.359914,18.07168 M 37.993849,111.79192 C 50.023354,111.68305 56.224159,92.694872 67.812115,98.238172 M 39.801016,128.96001 c -4.135848,-1.63013 -9.914118,-3.60625 -11.351272,-9.03932 -2.321121,-8.77491 7.781028,-23.331008 16.772776,-21.682518 m 13.553758,12.650168 c 9.758849,2.11547 25.693297,-15.487358 28.380624,0.90218 0.346425,2.1128 0.489887,4.18628 0.534063,6.32649 m -16.264514,0.90358 C 67.77955,131.2637 32.000135,131.00462 41.608184,148.83886 m 16.26451,9.93942 c 4.513497,-5e-4 8.774808,0.2759 12.649477,-2.39701 13.454084,-9.2812 14.048732,-33.57093 33.433299,-33.74634 m 11.74659,13.55375 c 0.34346,7.99915 -0.0133,17.91946 0,26.20394 0.0406,25.62015 -64.958673,30.98795 -78.565779,4.5214 -4.961999,-9.65135 21.128277,-16.2829 18.025661,-27.111"
     id="path1"
     sodipodi:nodetypes="csccccsccsccccscccac" /><path
     class="fill-blue"
     style="display:inline;mix-blend-mode:normal;fill:#8be9fd;fill-opacity:1;stroke:none;stroke-width:0.352778;stroke-opacity:1"
     d="m 62.5884,390.39077 c -40.02007,-3.62592 -73.49665,-31.90348 -83.7539,-70.74663 -4.01331,-15.198 -4.01331,-33.36826 0,-48.56626 9.67937,-36.65479 39.63748,-63.73394 77.4039,-69.96541 6.99154,-1.15361 22.64178,-1.15361 29.63333,0 41.25671,6.80738 72.6245,38.17516 79.43188,79.43187 1.84983,11.21107 0.9976,27.64223 -2.02799,39.0998 -9.6571,36.57046 -39.81128,63.87166 -77.2275,69.92077 -4.45449,0.72016 -18.98182,1.23157 -23.45972,0.82586 z m 22.40139,-5.72037 c 52.7555,-8.69562 86.4767,-59.58006 73.70138,-111.21356 -8.70542,-35.18434 -37.59744,-61.55296 -73.87777,-67.42537 -6.89864,-1.11662 -21.00679,-1.11782 -27.69306,-0.002 -39.31274,6.55855 -69.06848,36.34829 -75.38547,75.47163 -1.06803,6.61474 -1.14732,20.30013 -0.15489,26.73666 6.48822,42.08024 39.94542,73.56139 82.06675,77.21968 4.23024,0.3674 17.2536,-0.11262 21.34306,-0.78668 z"
     id="path21850"
     inkscape:label="path21850" /><path
     class="stroke-orange"
     style="fill:none;stroke:#ffb86c;stroke-width:4.32012;stroke-linecap:round;stroke-dasharray:none"
     d="m 459.65983,198.15929 c -1.50748,-6.33181 -0.22626,-14.21824 -1.70607,-20.78243 -3.95158,-17.5285 -11.76406,-32.78753 -3.4233,-50.60069 16.38563,-34.994443 77.8668,-34.010693 98.1037,-3.61434 13.69826,20.57516 -0.20017,43.72376 -3.2483,65.05804 -1.38656,9.7047 1.12265,20.19032 -0.69373,29.81826 -1.64571,8.72331 -10.36721,22.79008 -20.35992,18.07168 m -56.92579,-25.30035 c 12.0295,-0.10887 18.23031,-19.09705 29.81827,-13.55375 m -28.0111,30.72184 c -4.13585,-1.63013 -9.91412,-3.60625 -11.35128,-9.03932 -2.32112,-8.77491 7.78103,-23.33101 16.77278,-21.68252 m 13.55376,12.65017 c 9.75885,2.11547 25.6933,-15.48736 28.38062,0.90218 0.34643,2.1128 0.48989,4.18628 0.53407,6.32649 m -16.26452,0.90358 c -3.6469,12.24311 -39.42631,11.98403 -29.81827,29.81827 m 16.26451,9.93942 c 4.5135,-5e-4 8.77481,0.2759 12.64948,-2.39701 13.45409,-9.2812 14.04873,-33.57093 33.43331,-33.74634 m 11.74659,13.55375 c 0.34346,7.99915 -0.0133,17.91946 0,26.20394 0.004,2.52341 -0.049,4.57982 0.41903,7.22867 3.08257,17.44554 15.28434,37.23862 8.18385,55.11861 -13.98171,35.20777 -88.31652,32.84497 -103.58866,-2.71075 -7.8005,-18.16069 4.28007,-41.5278 16.41999,-55.11513 6.38418,-7.14535 21.12828,-16.2829 18.02566,-27.111"
     id="path1-6-6"
     sodipodi:nodetypes="csssssccccsccsccccsccccsssc" /><path
     class="fill-blue"
     style="display:inline;mix-blend-mode:normal;fill:#8be9fd;fill-opacity:1;stroke:none;stroke-width:0.352778;stroke-opacity:1"
     d="m 496.91053,319.70507 c -40.02006,-3.62592 -73.49664,-31.90348 -83.75389,-70.74663 -4.01331,-15.198 -4.01331,-33.36826 0,-48.56626 9.67937,-36.65479 39.63748,-63.73394 77.40389,-69.96541 6.99154,-1.15361 22.64178,-1.15361 29.63333,0 41.25671,6.80738 72.6245,38.17516 79.43188,79.43187 1.84983,11.21107 0.9976,27.64223 -2.02799,39.0998 -9.6571,36.57046 -39.81128,63.87166 -77.2275,69.92077 -4.45449,0.72016 -18.98182,1.23157 -23.45972,0.82586 z m 22.40139,-5.72037 c 52.7555,-8.69562 86.4767,-59.58006 73.70138,-111.21356 -8.70542,-35.18434 -37.59744,-61.55296 -73.87777,-67.42537 -6.89864,-1.11662 -21.00679,-1.11782 -27.69306,-0.002 -39.31273,6.55855 -69.06847,36.34829 -75.38546,75.47163 -1.06803,6.61474 -1.14732,20.30013 -0.15489,26.73666 6.48822,42.08024 39.94542,73.56139 82.06674,77.21968 4.23024,0.3674 17.2536,-0.11262 21.34306,-0.78668 z"
     id="path21850-5"
     inkscape:label="path21850" /><path
     class="stroke-orange"
     style="fill:none;stroke:#ffb86c;stroke-width:4.32012;stroke-linecap:round;stroke-dasharray:none"
     d="m 715.3536,198.15928 c -1.50748,-6.33181 -0.22626,-14.21824 -1.70607,-20.78243 -2.223,-9.86084 -5.66788,-19.00346 -6.7714,-28.28662 m 107.11992,-0.44352 c -1.30608,13.20996 -7.08014,26.72078 -8.91642,39.57315 -1.38656,9.7047 1.12265,20.19032 -0.69373,29.81826 -1.64571,8.72331 -10.36721,22.79008 -20.35992,18.07168 m -56.92579,-25.30035 c 12.0295,-0.10887 18.23031,-19.09705 29.81827,-13.55375 m -28.0111,30.72184 c -4.13585,-1.63013 -9.91412,-3.60625 -11.35128,-9.03932 -2.32112,-8.77491 7.78103,-23.33101 16.77278,-21.68252 m 13.55376,12.65017 c 9.75885,2.11547 25.6933,-15.48736 28.38062,0.90218 0.34643,2.1128 0.48989,4.18628 0.53407,6.32649 m -16.26452,0.90358 c -3.6469,12.24311 -39.42631,11.98403 -29.81827,29.81827 m 16.26451,9.93942 c 4.5135,-5e-4 8.77481,0.2759 12.64948,-2.39701 13.45409,-9.2812 14.04873,-33.57093 33.43331,-33.74634 m 11.74659,13.55375 c 0.34346,7.99915 -0.0133,17.91946 0,26.20394 0.004,2.52341 -0.049,4.57982 0.41903,7.22867 1.81142,10.25157 6.77181,21.31378 9.11398,32.32207 m -106.37908,0.45952 c 2.2353,-13.21706 10.24479,-26.49532 18.28028,-35.48886 6.38418,-7.14535 21.12828,-16.2829 18.02566,-27.111"
     id="path1-6-6-9"
     sodipodi:nodetypes="csccssccccsccsccccsccccccsc" /><path
     class="fill-blue"
     style="display:inline;mix-blend-mode:normal;fill:#8be9fd;fill-opacity:1;stroke:none;stroke-width:0.352778;stroke-opacity:1"
     d="m 752.6043,319.70506 c -40.02006,-3.62592 -73.49664,-31.90348 -83.75389,-70.74663 -4.01331,-15.19799 -4.01331,-33.36825 0,-48.56626 9.67937,-36.65478 39.63748,-63.73393 77.40389,-69.96541 6.99154,-1.15361 22.64178,-1.15361 29.63333,0 41.25671,6.80738 72.6245,38.17516 79.43188,79.43187 1.84983,11.21107 0.9976,27.64223 -2.02799,39.0998 -9.6571,36.57046 -39.81128,63.87167 -77.2275,69.92078 -4.45449,0.72016 -18.98182,1.23156 -23.45972,0.82585 z m 22.40139,-5.72037 c 52.7555,-8.69562 86.4767,-59.58006 73.70138,-111.21356 -8.70542,-35.18434 -37.59744,-61.55296 -73.87777,-67.42537 -6.89864,-1.11662 -21.00679,-1.11782 -27.69306,-0.002 -39.31273,6.55855 -69.06847,36.34829 -75.38546,75.47163 -1.06803,6.61474 -1.14732,20.30013 -0.15489,26.73666 6.48822,42.08024 39.94542,73.56139 82.06674,77.21968 4.23024,0.3674 17.2536,-0.11262 21.34306,-0.78668 z"
     id="path21850-5-1-8"
     inkscape:label="path21850" /><path
     id="rect3"
     class="stroke-foreground"
     style="fill:none;fill-opacity:1;stroke:#ff5555;stroke-width:3.18728;stroke-linecap:round;stroke-linejoin:round;stroke-miterlimit:4.1;stroke-dasharray:none;stroke-opacity:1"
     d="m 197.44606,210.10535 0.0364,8.30046 h -22.48741 v 12.59847 h 22.54472 l 0.0364,8.30046 25.22299,-14.71167 z" /><path
     id="rect3-0"
     class="stroke-foreground"
     style="fill:none;fill-opacity:1;stroke:#ff5555;stroke-width:3.18728;stroke-linecap:round;stroke-linejoin:round;stroke-miterlimit:4.1;stroke-dasharray:none;stroke-opacity:1"
     d="m 631.76819,210.10535 0.0364,8.30046 h -22.48741 v 12.59847 h 22.54472 l 0.0364,8.30046 25.22299,-14.71167 z" /><path
     id="rect3-2"
     class="stroke-foreground"
     style="fill:none;fill-opacity:1;stroke:#ff5555;stroke-width:3.18728;stroke-linecap:round;stroke-linejoin:round;stroke-miterlimit:4.1;stroke-dasharray:none;stroke-opacity:1"
     d="m 376.07442,210.10535 0.0364,8.30046 h -22.48741 v 12.59847 h 22.54472 l 0.0364,8.30046 25.22299,-14.71167 z" /></g>
    </g>
</svg>
