<?xml version="1.0" encoding="UTF-8" standalone="no"?>
<!-- Created with Inkscape (http://www.inkscape.org/) -->

<svg
   width="87.908546mm"
   height="87.908546mm"
   viewBox="0 0 87.908546 87.908546"
   version="1.1"
   id="svg1"
   inkscape:version="1.4 (e7c3feb100, 2024-10-09)"
   sodipodi:docname="drawing.svg"
   inkscape:export-filename="drawing.png"
   inkscape:export-xdpi="96"
   inkscape:export-ydpi="96"
   xmlns:inkscape="http://www.inkscape.org/namespaces/inkscape"
   xmlns:sodipodi="http://sodipodi.sourceforge.net/DTD/sodipodi-0.dtd"
   xmlns="http://www.w3.org/2000/svg"
   xmlns:svg="http://www.w3.org/2000/svg">
  <sodipodi:namedview
     id="namedview1"
     pagecolor="#ffffff"
     bordercolor="#000000"
     borderopacity="0.25"
     inkscape:showpageshadow="2"
     inkscape:pageopacity="0.0"
     inkscape:pagecheckerboard="0"
     inkscape:deskcolor="#d1d1d1"
     inkscape:document-units="mm"
     inkscape:zoom="2.5600001"
     inkscape:cx="253.71093"
     inkscape:cy="175"
     inkscape:window-width="2516"
     inkscape:window-height="1326"
     inkscape:window-x="0"
     inkscape:window-y="0"
     inkscape:window-maximized="1"
     inkscape:current-layer="layer1"
     inkscape:export-bgcolor="#ffffff00" />
  <defs
     id="defs1">
    <inkscape:path-effect
       effect="knot"
       id="path-effect55"
       is_visible="true"
       lpeversion="1"
       switcher_size="15"
       interruption_width="3.6"
       prop_to_stroke_width="true"
       add_stroke_width="inkscape_1.0_and_up"
       both="false"
       inverse_width="false"
       add_other_stroke_width="inkscape_1.0_and_up"
       crossing_points_vector="101.69858 | 94.819649 | 0 | 2 | 0 | 17 | 0.84813384 | 9.1518806 | 1 | 100.98845 | 101.3905 | 0 | 4 | 1 | 14 | 1.294493 | 6.6556456 | 1 | 93.904404 | 107.36949 | 0 | 4 | 2 | 15 | 2.4375566 | 7.5624476 | 1 | 97.960957 | 120.39469 | 0 | 1 | 4 | 4 | 3.6051672 | 3.6051672 | -1 | 92.268776 | 116.49415 | 0 | 4 | 3 | 16 | 3.3443676 | 8.7054882 | 1 | 105.10453 | 123.25444 | 0 | 5 | 5 | 9 | 3.9350106 | 5.3818969 | -1 | 113.26129 | 131.66274 | 0 | 2 | 8 | 5 | 4.6181007 | 3.9350141 | 1 | 108.98834 | 124.71119 | 0 | 3 | 6 | 6 | 4.2064851 | 4.2064849 | 1 | 111.70522 | 128.6383 | 0 | 5 | 7 | 7 | 4.4523009 | 4.452303 | -1 | 121.22421 | 128.63835 | 0 | 2 | 10 | 7 | 5.5476966 | 4.4523036 | 1 | 123.94106 | 124.71124 | 0 | 4 | 11 | 6 | 5.7935111 | 4.206479 | -1 | 119.66817 | 131.66274 | 0 | 5 | 9 | 5 | 5.3818994 | 3.9350107 | -1 | 134.96849 | 120.39469 | 0 | 1 | 13 | 13 | 6.3948328 | 6.3948328 | -1 | 127.82486 | 123.25445 | 0 | 2 | 12 | 9 | 6.0649862 | 5.3818991 | 1 | 140.66064 | 116.49418 | 0 | 3 | 14 | 16 | 6.6556306 | 8.7054845 | -1 | 139.02503 | 107.36949 | 0 | 3 | 15 | 15 | 7.5624443 | 7.5624442 | -1 | 131.94062 | 101.39067 | 0 | 3 | 16 | 14 | 8.7054853 | 6.6556303 | -1 | 131.23041 | 94.819697 | 0 | 5 | 17 | 17 | 9.1518641 | 9.1518623 | -1 | 101.6987 | 145.97012 | 1 | 4 | 0 | 0 | 0.8481171 | 0.84811558 | -1 | 100.98845 | 139.39885 | 1 | 2 | 1 | 3 | 1.294497 | 3.3443531 | -1 | 93.904412 | 133.41989 | 1 | 2 | 2 | 2 | 2.4375561 | 2.4375557 | -1 | 92.268504 | 124.29546 | 1 | 2 | 3 | 1 | 3.3443531 | 1.2944972 | -1 | 105.1046 | 117.53494 | 1 | 3 | 5 | 8 | 3.9350144 | 4.6181003 | 1 | 111.70525 | 112.15103 | 1 | 3 | 7 | 10 | 4.4523039 | 5.5476965 | 1 | 113.26129 | 109.12664 | 1 | 4 | 8 | 12 | 4.6181013 | 6.064983 | -1 | 108.98828 | 116.07826 | 1 | 5 | 6 | 11 | 4.2064803 | 5.7935085 | -1 | 123.94111 | 116.0782 | 1 | 2 | 11 | 11 | 5.7935149 | 5.7935146 | 1 | 119.66817 | 109.12665 | 1 | 3 | 9 | 12 | 5.3818994 | 6.0649857 | 1 | 121.22418 | 112.15099 | 1 | 4 | 10 | 10 | 5.5476936 | 5.5476966 | -1 | 127.82481 | 117.53493 | 1 | 4 | 12 | 8 | 6.064983 | 4.6180978 | -1 | 140.6609 | 124.29543 | 1 | 5 | 14 | 1 | 6.6556446 | 1.2944996 | 1 | 139.02502 | 133.41989 | 1 | 5 | 15 | 2 | 7.5624452 | 2.4375588 | 1 | 131.94062 | 139.39868 | 1 | 5 | 16 | 3 | 8.7054821 | 3.3443679 | 1 | 131.23029 | 145.97006 | 1 | 3 | 17 | 0 | 9.1518804 | 0.84813386 | 1 | 86.932984 | 120.39499 | 2 | 4 | 0 | 17 | 0.84813196 | 9.1518814 | 1 | 107.21284 | 136.41943 | 2 | 3 | 4 | 4 | 3.605167 | 3.6051672 | -1 | 124.62141 | 128.80297 | 2 | 4 | 8 | 5 | 4.6181004 | 3.9350112 | 1 | 116.46479 | 129.02766 | 2 | 5 | 6 | 6 | 4.2064889 | 4.2064789 | 1 | 125.98366 | 120.39465 | 2 | 4 | 10 | 7 | 5.5476987 | 4.4523031 | 1 | 125.71661 | 104.36996 | 2 | 3 | 13 | 13 | 6.3948327 | 6.3948325 | -1 | 124.62143 | 111.98636 | 2 | 4 | 12 | 9 | 6.0649888 | 5.3818972 | 1 | 125.18472 | 97.490108 | 2 | 5 | 14 | 16 | 6.6556327 | 8.7054876 | -1 | 116.46473 | 94.344284 | 2 | 5 | 15 | 15 | 7.562444 | 7.5624478 | -1 | 107.74467 | 97.490148 | 2 | 5 | 16 | 14 | 8.7054903 | 6.6556293 | -1 | 125.18464 | 143.2996 | 3 | 4 | 1 | 3 | 1.2945015 | 3.3443521 | -1 | 116.46473 | 146.44509 | 3 | 4 | 2 | 2 | 2.4375553 | 2.4375589 | -1 | 107.74477 | 143.29957 | 3 | 4 | 3 | 1 | 3.3443553 | 1.2944996 | -1 | 108.30805 | 128.80292 | 3 | 5 | 5 | 8 | 3.9350172 | 4.6180977 | 1 | 106.94574 | 120.39464 | 3 | 5 | 7 | 10 | 4.4523065 | 5.5476967 | 1 | 116.4648 | 111.76168 | 3 | 4 | 11 | 11 | 5.7935191 | 5.7935091 | 1 | 108.30802 | 111.98641 | 3 | 5 | 9 | 12 | 5.3818985 | 6.0649834 | 1 | 145.9964 | 120.39498 | 3 | 5 | 17 | 0 | 9.151878 | 0.84813397 | 1 | 125.71659 | 136.41939 | 4 | 5 | 4 | 4 | 3.6051668 | 3.6051666 | -1 | 107.21281 | 104.36991 | 4 | 5 | 13 | 13 | 6.3948332 | 6.3948331 | -1" />
  </defs>
  <g
     inkscape:label="Layer 1"
     inkscape:groupmode="layer"
     id="layer1"
     transform="translate(-1146.5999,-643.89155)">
    <path
       id="path8"
       style="fill:#000000;fill-opacity:1;stroke:none;stroke-width:1.03104;stroke-linecap:butt;stroke-dasharray:none;stroke-opacity:1"
       d="m 1188.9473,649.41406 c -5.3399,0.3984 -10.7848,2.679 -14.0411,7.06836 -0.4777,0.65897 -0.8675,1.37516 -1.2539,2.08985 -5.3402,-0.3459 -10.4712,2.48143 -13.8742,6.46238 -4.3377,4.94847 -6.5798,11.97274 -4.9762,18.45928 0.3979,1.54824 1.0872,3.01146 1.9461,4.35568 -2.9615,4.45431 -3.0899,10.31008 -1.3335,15.2463 2.1119,6.23523 7.0856,11.68334 13.5034,13.54152 1.5374,0.42634 3.1459,0.5545 4.7364,0.48757 2.3755,4.79348 7.3856,7.83108 12.5387,8.77791 6.4493,1.28844 13.6487,-0.29045 18.464,-4.91347 1.1416,-1.121 2.0727,-2.44878 2.7981,-3.87225 5.3404,0.34986 10.4755,-2.47654 13.874,-6.46284 4.3384,-4.94188 6.577,-11.96285 4.9805,-18.44519 -0.4008,-1.55174 -1.0849,-3.02377 -1.9541,-4.36736 2.9508,-4.41796 3.0939,-10.23129 1.3727,-15.14158 -2.0926,-6.29281 -7.105,-11.79782 -13.5724,-13.65584 -1.5284,-0.39972 -3.121,-0.57854 -4.6988,-0.4643 -2.329,-4.73206 -7.2398,-7.75183 -12.3087,-8.7417 -2.0316,-0.42694 -4.13,-0.56696 -6.201,-0.42432 z" />
    <g
       id="g54"
       style="stroke:#ffcd00;stroke-width:2;stroke-linecap:round;stroke-dasharray:none;stroke-opacity:1"
       transform="translate(1074.0894,567.45113)">
      <path
         id="path49"
         style="fill:none;stroke:#ffcd00;stroke-width:2;stroke-linecap:round;stroke-dasharray:none;stroke-opacity:1"
         d="m 129.58002,91.504029 c -3.01017,-4.156753 -8.5436,-5.877214 -13.11529,-5.877214 -6.64765,0 -15.3293,3.637705 -15.3293,13.113928 0,3.413627 -0.55913,5.349537 -1.736329,6.526737 -0.507138,0.50714 -1.209846,0.87537 -2.015653,1.17071 m -6.898214,2.06268 c -1.116369,0.60293 -1.864287,1.47071 -1.864287,2.87424 0,3.8156 10.696302,10.78359 16.261213,11.83984 m 10.34927,11.72201 c 0.41148,0.47149 0.81942,0.74881 1.2333,0.74881 2.26459,0 4.3514,-8.30262 7.81249,-11.28462 m 18.92464,-10.49649 c 0.69843,-0.91844 1.10664,-1.78415 1.10664,-2.52955 0,-4.6204 -8.1053,-3.43478 -10.77815,-6.10763 -0.14626,-0.14627 -0.283,-0.30424 -0.4103,-0.47531" />
      <path
         id="path50"
         style="fill:none;stroke:#ffcd00;stroke-width:2;stroke-linecap:round;stroke-dasharray:none;stroke-opacity:1"
         d="m 135.54598,134.3512 c -0.8058,0.29534 -1.5085,0.66357 -2.01563,1.1707 -1.17719,1.1772 -1.73684,3.11311 -1.73684,6.52674 0,9.47622 -8.68113,13.11393 -15.32878,13.11393 -4.57153,0 -10.10498,-1.72034 -13.11538,-5.87678 m -3.539959,-13.28857 c -0.127297,-0.17107 -0.264022,-0.32905 -0.41029,-0.47532 -2.672846,-2.67285 -10.778154,-1.48723 -10.778154,-6.10763 0,-0.74531 0.408111,-1.61089 1.106373,-2.5292 m 18.92491,-10.49683 c 3.46109,-2.98201 5.54791,-11.28462 7.8125,-11.28462 0.41388,0 0.82182,0.27732 1.2333,0.7488 m 10.34926,11.72202 c 5.56492,1.05625 16.26121,8.02423 16.26121,11.83983 0,1.40354 -0.74793,2.27132 -1.86431,2.87425" />
      <path
         id="path51"
         style="fill:none;stroke:#ffcd00;stroke-width:2;stroke-linecap:round;stroke-dasharray:none;stroke-opacity:1"
         d="m 98.001873,94.591225 c -5.104736,0.528696 -9.361229,4.460441 -11.647007,8.419525 h -4e-6 c -3.323825,5.75703 -4.514305,15.09441 3.692344,19.83253 2.956288,1.70681 4.35327,3.15898 4.784156,4.76707 0.185625,0.69276 0.153172,1.48544 0.006,2.33095 m -1.662774,7.00537 c -0.03604,1.26827 0.341522,2.34988 1.55702,3.05165 3.304422,1.90781 14.687122,-3.87153 18.384262,-8.16276 M 128.442,128.7339 c 0.61406,-0.12061 1.05821,-0.33524 1.26515,-0.69367 1.1323,-1.96121 -5.01463,-7.91978 -5.86654,-12.40818 m 0.37208,-21.637465 c -0.44617,-1.064047 -0.99178,-1.850407 -1.63731,-2.223102 -4.00138,-2.3102 -7.02725,5.302006 -10.67843,6.280337 -0.19982,0.05354 -0.40501,0.09296 -0.61683,0.117682" />
      <path
         id="path52"
         style="fill:none;stroke:#ffcd00;stroke-width:2;stroke-linecap:round;stroke-dasharray:none;stroke-opacity:1"
         d="m 138.09204,110.84808 c -0.14712,0.84551 -0.17958,1.63819 0.006,2.33095 0.43089,1.60808 1.82762,3.0607 4.78391,4.76752 8.20664,4.73811 7.01643,14.07504 3.6926,19.83208 h -10e-6 c -2.28583,3.95918 -6.54261,7.89123 -11.64759,8.4199 m -13.27779,-3.57863 c -0.21179,0.0247 -0.41696,0.0641 -0.61675,0.11766 -3.65118,0.97833 -6.67706,8.59054 -10.67844,6.28034 -0.64546,-0.37266 -1.19103,-1.1589 -1.63719,-2.2228 m 0.37195,-21.63787 c -0.85198,-4.48838 -6.99881,-10.44689 -5.86651,-12.40808 0.20694,-0.35843 0.65107,-0.57305 1.26511,-0.69366 m 15.32627,-3.10178 c 3.69725,-4.29122 15.07976,-10.070439 18.38414,-8.16265 1.2155,0.70177 1.59306,1.78338 1.55702,3.05165" />
      <path
         id="path53"
         style="fill:none;stroke:#ffcd00;stroke-width:2;stroke-linecap:round;stroke-dasharray:none;stroke-opacity:1"
         d="m 84.886811,123.48223 c -2.094491,4.68518 -0.817747,10.33727 1.468028,14.29635 h -6e-6 c 3.323822,5.75704 10.81499,11.45671 19.021647,6.7186 2.95628,-1.70681 4.91239,-2.19055 6.52048,-1.75966 0.69277,0.18563 1.36304,0.61008 2.02172,1.16027 m 5.23545,4.94269 c 1.08032,0.66532 2.20579,0.87914 3.42127,0.17738 3.30439,-1.90779 3.99071,-14.65494 2.12302,-20.00247 m 4.9769,-14.82377 c 0.20258,-0.59211 0.23879,-1.08408 0.0318,-1.44252 -1.1323,-1.96119 -9.36592,0.38288 -13.67897,-1.12349 M 97.475196,100.48457 c -1.144425,-0.14556 -2.098111,-0.0662 -2.743572,0.30645 -4.001382,2.3102 1.078047,8.73678 0.09972,12.38796 -0.05354,0.19981 -0.121991,0.39722 -0.206493,0.59302"
         sodipodi:nodetypes="ssssssssssss" />
      <path
         id="path54"
         style="fill:none;stroke:#ffcd00;stroke-width:2;stroke-linecap:round;stroke-dasharray:none;stroke-opacity:1"
         d="m 119.01078,96.891568 c 0.65866,0.550157 1.3289,0.974586 2.02165,1.160205 1.60808,0.430879 3.56445,-0.05241 6.52074,-1.759227 8.20665,-4.738104 15.69756,0.961113 19.02139,6.718154 v 1e-5 c 2.28584,3.95918 3.56271,9.61169 1.46805,14.29707 m -9.73806,9.70956 c -0.0845,0.19578 -0.15295,0.39317 -0.20649,0.59297 -0.97833,3.65118 4.10109,10.07777 0.0997,12.38797 -0.64553,0.3727 -1.59935,0.45203 -2.74393,0.3064 M 116.9013,129.16371 c -4.31302,-1.50643 -12.54677,0.83767 -13.67907,-1.12353 -0.20694,-0.35842 -0.17075,-0.85036 0.0318,-1.44244 m 4.97698,-14.82367 c -1.86775,-5.34744 -1.18147,-18.09482 2.12295,-20.002624 1.21552,-0.701779 2.34101,-0.487935 3.42136,0.177432" />
    </g>
  </g>
</svg>
